M48
; DRILL file KiCad 10.0.4 date 2026-09-21T20:12:32
; FORMAT={-:-/ absolute / metric / decimal}
; #@! TF.CreationDate,2026-09-21T20:12:32+09:00
; #@! TF.GenerationSoftware,Kicad,Pcbnew,10.0.4
; #@! TF.FileFunction,Plated,1,2,PTH
FMAT,2
METRIC
; #@! TA.AperFunction,Plated,PTH,ViaDrill
T1C0.300
; #@! TA.AperFunction,Plated,PTH,ComponentDrill
T2C1.000
; #@! TA.AperFunction,Plated,PTH,ComponentDrill
T3C1.300
%
G90
G05
T1
X110.249Y-121.59
X125.743Y-113.081
X128.156Y-121.59
X143.904Y-113.081
X146.444Y-121.717
X161.557Y-112.954
X164.478Y-121.717
X182.639Y-121.717
X184.925Y-114.605
X186.83Y-89.078
T2
X144.38Y-58.8
X144.38Y-76.58
X146.92Y-58.8
X146.92Y-76.58
X149.46Y-58.8
X149.46Y-76.58
X152.0Y-58.8
X152.0Y-76.58
X154.54Y-58.8
X154.54Y-76.58
X157.08Y-58.8
X157.08Y-76.58
X158.89Y-82.22
X158.89Y-84.76
X158.89Y-87.3
X158.89Y-89.84
X158.89Y-92.38
X158.89Y-94.92
X158.89Y-97.46
X159.62Y-58.8
X159.62Y-76.58
X162.16Y-58.8
X162.16Y-76.58
X164.7Y-58.8
X164.7Y-76.58
X165.25Y-84.76
X165.25Y-87.3
X165.25Y-89.84
X165.25Y-92.38
X167.24Y-58.8
X167.24Y-76.58
X169.78Y-58.8
X169.78Y-76.58
X172.32Y-58.8
X172.32Y-76.58
X174.86Y-58.8
X174.86Y-76.58
X177.4Y-58.8
X177.4Y-76.58
X179.94Y-58.8
X179.94Y-76.58
X182.48Y-58.8
X182.48Y-76.58
X185.02Y-58.8
X185.02Y-76.58
X187.56Y-58.8
X187.56Y-76.58
X190.1Y-58.8
X190.1Y-76.58
X192.64Y-58.8
X192.64Y-76.58
T3
X107.7Y-127.7
X107.7Y-132.7
X120.2Y-127.7
X120.2Y-132.7
X125.7Y-127.7
X125.7Y-132.7
X138.2Y-127.7
X138.2Y-132.7
X143.75Y-127.75
X143.75Y-132.75
X156.25Y-127.75
X156.25Y-132.75
X161.9Y-127.75
X161.9Y-132.75
X174.4Y-127.75
X174.4Y-132.75
X179.8Y-127.75
X179.8Y-132.75
X192.3Y-127.75
X192.3Y-132.75
M30
