%TF.GenerationSoftware,KiCad,Pcbnew,10.0.4*%
%TF.CreationDate,2026-09-21T20:11:21+09:00*%
%TF.ProjectId,bath-monitor,62617468-2d6d-46f6-9e69-746f722e6b69,rev?*%
%TF.SameCoordinates,Original*%
%TF.FileFunction,Copper,L2,Bot*%
%TF.FilePolarity,Positive*%
%FSLAX46Y46*%
G04 Gerber Fmt 4.6, Leading zero omitted, Abs format (unit mm)*
G04 Created by KiCad (PCBNEW 10.0.4) date 2026-09-21 20:11:21*
%MOMM*%
%LPD*%
G01*
G04 APERTURE LIST*
G04 Aperture macros list*
%AMRoundRect*
0 Rectangle with rounded corners*
0 $1 Rounding radius*
0 $2 $3 $4 $5 $6 $7 $8 $9 X,Y pos of 4 corners*
0 Add a 4 corners polygon primitive as box body*
4,1,4,$2,$3,$4,$5,$6,$7,$8,$9,$2,$3,0*
0 Add four circle primitives for the rounded corners*
1,1,$1+$1,$2,$3*
1,1,$1+$1,$4,$5*
1,1,$1+$1,$6,$7*
1,1,$1+$1,$8,$9*
0 Add four rect primitives between the rounded corners*
20,1,$1+$1,$2,$3,$4,$5,0*
20,1,$1+$1,$4,$5,$6,$7,0*
20,1,$1+$1,$6,$7,$8,$9,0*
20,1,$1+$1,$8,$9,$2,$3,0*%
%AMFreePoly0*
4,1,37,0.603843,0.796157,0.639018,0.796157,0.711114,0.766294,0.766294,0.711114,0.796157,0.639018,0.796157,0.603843,0.800000,0.600000,0.800000,-0.600000,0.796157,-0.603843,0.796157,-0.639018,0.766294,-0.711114,0.711114,-0.766294,0.639018,-0.796157,0.603843,-0.796157,0.600000,-0.800000,0.000000,-0.800000,0.000000,-0.796148,-0.078414,-0.796148,-0.232228,-0.765552,-0.377117,-0.705537,
-0.507515,-0.618408,-0.618408,-0.507515,-0.705537,-0.377117,-0.765552,-0.232228,-0.796148,-0.078414,-0.796148,0.078414,-0.765552,0.232228,-0.705537,0.377117,-0.618408,0.507515,-0.507515,0.618408,-0.377117,0.705537,-0.232228,0.765552,-0.078414,0.796148,0.000000,0.796148,0.000000,0.800000,0.600000,0.800000,0.603843,0.796157,0.603843,0.796157,$1*%
%AMFreePoly1*
4,1,37,0.000000,0.796148,0.078414,0.796148,0.232228,0.765552,0.377117,0.705537,0.507515,0.618408,0.618408,0.507515,0.705537,0.377117,0.765552,0.232228,0.796148,0.078414,0.796148,-0.078414,0.765552,-0.232228,0.705537,-0.377117,0.618408,-0.507515,0.507515,-0.618408,0.377117,-0.705537,0.232228,-0.765552,0.078414,-0.796148,0.000000,-0.796148,0.000000,-0.800000,-0.600000,-0.800000,
-0.603843,-0.796157,-0.639018,-0.796157,-0.711114,-0.766294,-0.766294,-0.711114,-0.796157,-0.639018,-0.796157,-0.603843,-0.800000,-0.600000,-0.800000,0.600000,-0.796157,0.603843,-0.796157,0.639018,-0.766294,0.711114,-0.711114,0.766294,-0.639018,0.796157,-0.603843,0.796157,-0.600000,0.800000,0.000000,0.800000,0.000000,0.796148,0.000000,0.796148,$1*%
G04 Aperture macros list end*
%TA.AperFunction,ComponentPad*%
%ADD10O,3.200000X1.900000*%
%TD*%
%TA.AperFunction,ComponentPad*%
%ADD11R,1.700000X1.700000*%
%TD*%
%TA.AperFunction,ComponentPad*%
%ADD12C,1.700000*%
%TD*%
%TA.AperFunction,ComponentPad*%
%ADD13RoundRect,0.200000X-0.600000X0.600000X-0.600000X-0.600000X0.600000X-0.600000X0.600000X0.600000X0*%
%TD*%
%TA.AperFunction,ComponentPad*%
%ADD14C,1.600000*%
%TD*%
%TA.AperFunction,ComponentPad*%
%ADD15FreePoly0,270.000000*%
%TD*%
%TA.AperFunction,ComponentPad*%
%ADD16FreePoly1,270.000000*%
%TD*%
%TA.AperFunction,ViaPad*%
%ADD17C,0.600000*%
%TD*%
%TA.AperFunction,Conductor*%
%ADD18C,0.200000*%
%TD*%
G04 APERTURE END LIST*
D10*
%TO.P,SW5,1,1_1*%
%TO.N,GND*%
X107700000Y-127700000D03*
X120200000Y-127700000D03*
%TO.P,SW5,2,2_2*%
%TO.N,Net-(U2-GP6)*%
X107700000Y-132700000D03*
X120200000Y-132700000D03*
%TD*%
%TO.P,SW4,1,1_1*%
%TO.N,GND*%
X125700000Y-127700000D03*
X138200000Y-127700000D03*
%TO.P,SW4,2,2_2*%
%TO.N,Net-(U2-GP5)*%
X125700000Y-132700000D03*
X138200000Y-132700000D03*
%TD*%
%TO.P,SW1,1,1_1*%
%TO.N,GND*%
X179800000Y-127750000D03*
X192300000Y-127750000D03*
%TO.P,SW1,2,2_2*%
%TO.N,Net-(U2-GP2)*%
X179800000Y-132750000D03*
X192300000Y-132750000D03*
%TD*%
%TO.P,SW2,1,1_1*%
%TO.N,GND*%
X161900000Y-127750000D03*
X174400000Y-127750000D03*
%TO.P,SW2,2,2_2*%
%TO.N,Net-(U2-GP3)*%
X161900000Y-132750000D03*
X174400000Y-132750000D03*
%TD*%
D11*
%TO.P,J2,1,Pin_1_1*%
%TO.N,+3V3*%
X165250000Y-84760000D03*
D12*
%TO.P,J2,2,Pin_2_2*%
%TO.N,GND*%
X165250000Y-87300000D03*
%TO.P,J2,3,Pin_3_3*%
%TO.N,Net-(J2-Pin_3)*%
X165250000Y-89840000D03*
%TO.P,J2,4,Pin_4_4*%
%TO.N,unconnected-(J2-Pin_4-Pad4)*%
X165250000Y-92380000D03*
%TD*%
D13*
%TO.P,U2,1,GP0_1*%
%TO.N,unconnected-(U2-GP0-Pad1)*%
X192640000Y-58800000D03*
D14*
%TO.P,U2,2,GP1_2*%
%TO.N,unconnected-(U2-GP1-Pad2)*%
X190100000Y-58800000D03*
D15*
%TO.P,U2,3,GND_3*%
%TO.N,GND*%
X187560000Y-58800000D03*
D14*
%TO.P,U2,4,GP2_4*%
%TO.N,Net-(U2-GP2)*%
X185020000Y-58800000D03*
%TO.P,U2,5,GP3_5*%
%TO.N,Net-(U2-GP3)*%
X182480000Y-58800000D03*
%TO.P,U2,6,GP4_6*%
%TO.N,Net-(U2-GP4)*%
X179940000Y-58800000D03*
%TO.P,U2,7,GP5_7*%
%TO.N,Net-(U2-GP5)*%
X177400000Y-58800000D03*
D15*
%TO.P,U2,8,GND_8*%
%TO.N,GND*%
X174860000Y-58800000D03*
D14*
%TO.P,U2,9,GP6_9*%
%TO.N,Net-(U2-GP6)*%
X172320000Y-58800000D03*
%TO.P,U2,10,GP7_10*%
%TO.N,unconnected-(U2-GP7-Pad10)*%
X169780000Y-58800000D03*
%TO.P,U2,11,GP8_11*%
%TO.N,unconnected-(U2-GP8-Pad11)*%
X167240000Y-58800000D03*
%TO.P,U2,12,GP9_12*%
%TO.N,unconnected-(U2-GP9-Pad12)*%
X164700000Y-58800000D03*
D15*
%TO.P,U2,13,GND_13*%
%TO.N,GND*%
X162160000Y-58800000D03*
D14*
%TO.P,U2,14,GP10_14*%
%TO.N,unconnected-(U2-GP10-Pad14)*%
X159620000Y-58800000D03*
%TO.P,U2,15,GP11_15*%
%TO.N,unconnected-(U2-GP11-Pad15)*%
X157080000Y-58800000D03*
%TO.P,U2,16,GP12_16*%
%TO.N,unconnected-(U2-GP12-Pad16)*%
X154540000Y-58800000D03*
%TO.P,U2,17,GP13_17*%
%TO.N,unconnected-(U2-GP13-Pad17)*%
X152000000Y-58800000D03*
D15*
%TO.P,U2,18,GND_18*%
%TO.N,GND*%
X149460000Y-58800000D03*
D14*
%TO.P,U2,19,GP14_19*%
%TO.N,unconnected-(U2-GP14-Pad19)*%
X146920000Y-58800000D03*
%TO.P,U2,20,GP15_20*%
%TO.N,Net-(U2-GP15)*%
X144380000Y-58800000D03*
%TO.P,U2,21,GP16_21*%
%TO.N,Net-(J1-Pin_2)*%
X144380000Y-76580000D03*
%TO.P,U2,22,GP17_22*%
%TO.N,Net-(J1-Pin_1)*%
X146920000Y-76580000D03*
D16*
%TO.P,U2,23,GND_23*%
%TO.N,GND*%
X149460000Y-76580000D03*
D14*
%TO.P,U2,24,GP18_24*%
%TO.N,Net-(J1-Pin_3)*%
X152000000Y-76580000D03*
%TO.P,U2,25,GP19_25*%
%TO.N,unconnected-(U2-GP19-Pad25)*%
X154540000Y-76580000D03*
%TO.P,U2,26,GP20_26*%
%TO.N,unconnected-(U2-GP20-Pad26)*%
X157080000Y-76580000D03*
%TO.P,U2,27,GP21_27*%
%TO.N,unconnected-(U2-GP21-Pad27)*%
X159620000Y-76580000D03*
D16*
%TO.P,U2,28,GND_28*%
%TO.N,GND*%
X162160000Y-76580000D03*
D14*
%TO.P,U2,29,GP22_29*%
%TO.N,unconnected-(U2-GP22-Pad29)*%
X164700000Y-76580000D03*
%TO.P,U2,30,RUN_30*%
%TO.N,unconnected-(U2-RUN-Pad30)*%
X167240000Y-76580000D03*
%TO.P,U2,31,GP26_ADC0_31*%
%TO.N,Net-(J2-Pin_3)*%
X169780000Y-76580000D03*
%TO.P,U2,32,GP27_ADC1_32*%
%TO.N,unconnected-(U2-GP27_ADC1-Pad32)*%
X172320000Y-76580000D03*
D16*
%TO.P,U2,33,GND_33*%
%TO.N,GND*%
X174860000Y-76580000D03*
D14*
%TO.P,U2,34,GP28_ADC2_34*%
%TO.N,unconnected-(U2-GP28_ADC2-Pad34)*%
X177400000Y-76580000D03*
%TO.P,U2,35,ADC_VREF_35*%
%TO.N,unconnected-(U2-ADC_VREF-Pad35)*%
X179940000Y-76580000D03*
%TO.P,U2,36,3V3_OUT_36*%
%TO.N,+3V3*%
X182480000Y-76580000D03*
%TO.P,U2,37,3V3_EN_37*%
%TO.N,unconnected-(U2-3V3_EN-Pad37)*%
X185020000Y-76580000D03*
D16*
%TO.P,U2,38,GND_38*%
%TO.N,GND*%
X187560000Y-76580000D03*
D14*
%TO.P,U2,39,VSYS_39*%
%TO.N,unconnected-(U2-VSYS-Pad39)*%
X190100000Y-76580000D03*
%TO.P,U2,40,VBUS_40*%
%TO.N,+5V*%
X192640000Y-76580000D03*
%TD*%
D11*
%TO.P,J1,1,Pin_1_1*%
%TO.N,Net-(J1-Pin_1)*%
X158890000Y-82220000D03*
D12*
%TO.P,J1,2,Pin_2_2*%
%TO.N,Net-(J1-Pin_2)*%
X158890000Y-84760000D03*
%TO.P,J1,3,Pin_3_3*%
%TO.N,Net-(J1-Pin_3)*%
X158890000Y-87300000D03*
%TO.P,J1,4,Pin_4_4*%
%TO.N,unconnected-(J1-Pin_4-Pad4)*%
X158890000Y-89840000D03*
%TO.P,J1,5,Pin_5_5*%
%TO.N,+3V3*%
X158890000Y-92380000D03*
%TO.P,J1,6,Pin_6_6*%
%TO.N,GND*%
X158890000Y-94920000D03*
%TO.P,J1,7,Pin_7_7*%
%TO.N,+5V*%
X158890000Y-97460000D03*
%TD*%
D10*
%TO.P,SW3,1,1_1*%
%TO.N,GND*%
X143750000Y-127750000D03*
X156250000Y-127750000D03*
%TO.P,SW3,2,2_2*%
%TO.N,Net-(U2-GP4)*%
X143750000Y-132750000D03*
X156250000Y-132750000D03*
%TD*%
D17*
%TO.N,GND*%
X125743000Y-113081000D03*
X143904000Y-113081000D03*
X161557000Y-112954000D03*
%TO.N,Net-(D1-DIN)*%
X186830000Y-89078000D03*
X184925000Y-114605000D03*
%TO.N,Net-(U2-GP6)*%
X110249000Y-121590000D03*
%TO.N,Net-(U2-GP5)*%
X128156000Y-121590000D03*
%TO.N,Net-(U2-GP4)*%
X146444000Y-121717000D03*
%TO.N,Net-(U2-GP3)*%
X164478000Y-121717000D03*
%TO.N,Net-(U2-GP2)*%
X182639000Y-121717000D03*
%TD*%
%TO.N,Net-(U2-GP5)*%
D18*
X128156000Y-121590000D02*
X143863529Y-121590000D01*
X143863529Y-121590000D02*
X171125264Y-94328264D01*
X171125264Y-94328264D02*
X171125264Y-73413736D01*
X171125264Y-73413736D02*
X177400000Y-67139000D01*
X177400000Y-67139000D02*
X177400000Y-58800000D01*
%TO.N,Net-(J2-Pin_3)*%
X169780000Y-76580000D02*
X169780000Y-85310000D01*
X169780000Y-85310000D02*
X165250000Y-89840000D01*
%TO.N,GND*%
X143904000Y-113081000D02*
X125743000Y-113081000D01*
X125743000Y-113081000D02*
X125743000Y-118350644D01*
X158890000Y-94920000D02*
X143904000Y-109906000D01*
X143904000Y-109906000D02*
X143904000Y-113081000D01*
%TO.N,Net-(D1-DIN)*%
X186830000Y-89078000D02*
X186195000Y-89713000D01*
%TO.N,Net-(U2-GP6)*%
X166045000Y-65075000D02*
X162700000Y-65075000D01*
X153302000Y-74473000D02*
X153302000Y-94298000D01*
X153302000Y-94298000D02*
X140200000Y-107400000D01*
X162700000Y-65075000D02*
X153302000Y-74473000D01*
X172320000Y-58800000D02*
X166045000Y-65075000D01*
X112408000Y-121590000D02*
X110249000Y-121590000D01*
X140200000Y-107400000D02*
X126852000Y-107400000D01*
X126852000Y-107400000D02*
X112535000Y-121717000D01*
X112535000Y-121717000D02*
X112408000Y-121590000D01*
%TO.N,Net-(D1-DIN)*%
X186195000Y-113335000D02*
X184925000Y-114605000D01*
X186195000Y-89713000D02*
X186195000Y-113335000D01*
%TO.N,Net-(U2-GP4)*%
X178702000Y-74981000D02*
X178702000Y-89459000D01*
X179940000Y-73743000D02*
X178702000Y-74981000D01*
X178702000Y-89459000D02*
X146444000Y-121717000D01*
X179940000Y-58800000D02*
X179940000Y-73743000D01*
%TO.N,Net-(U2-GP3)*%
X181242000Y-75235000D02*
X181242000Y-104953000D01*
X182480000Y-58800000D02*
X182480000Y-73997000D01*
X181242000Y-104953000D02*
X164478000Y-121717000D01*
X182480000Y-73997000D02*
X181242000Y-75235000D01*
%TO.N,Net-(U2-GP2)*%
X191529000Y-75235000D02*
X191529000Y-112827000D01*
X191529000Y-112827000D02*
X182639000Y-121717000D01*
X185020000Y-58800000D02*
X185020000Y-68726000D01*
X185020000Y-68726000D02*
X191529000Y-75235000D01*
%TD*%
%TA.AperFunction,Conductor*%
%TO.N,GND*%
G36*
X176103135Y-59689582D02*
G01*
X176103137Y-59689582D01*
X176126553Y-59633052D01*
X176136668Y-59604379D01*
X176177533Y-59547706D01*
X176242551Y-59522123D01*
X176311078Y-59535752D01*
X176353924Y-59572744D01*
X176408028Y-59647212D01*
X176408032Y-59647217D01*
X176408034Y-59647219D01*
X176552781Y-59791966D01*
X176718390Y-59912287D01*
X176731793Y-59919116D01*
X176782589Y-59967088D01*
X176799500Y-60029601D01*
X176799500Y-66838902D01*
X176779815Y-66905941D01*
X176763181Y-66926583D01*
X170644745Y-73045018D01*
X170644743Y-73045021D01*
X170594625Y-73131830D01*
X170594623Y-73131832D01*
X170565689Y-73181945D01*
X170565688Y-73181946D01*
X170565687Y-73181951D01*
X170524763Y-73334679D01*
X170524763Y-73334681D01*
X170524763Y-73502782D01*
X170524764Y-73502795D01*
X170524764Y-75297541D01*
X170505079Y-75364580D01*
X170452275Y-75410335D01*
X170383117Y-75420279D01*
X170344470Y-75408026D01*
X170279226Y-75374782D01*
X170084534Y-75311522D01*
X169909995Y-75283878D01*
X169882352Y-75279500D01*
X169677648Y-75279500D01*
X169653329Y-75283351D01*
X169475465Y-75311522D01*
X169280776Y-75374781D01*
X169098386Y-75467715D01*
X168932786Y-75588028D01*
X168788028Y-75732786D01*
X168667715Y-75898386D01*
X168620485Y-75991080D01*
X168572510Y-76041876D01*
X168504689Y-76058671D01*
X168438554Y-76036134D01*
X168399515Y-75991080D01*
X168398883Y-75989840D01*
X168352287Y-75898390D01*
X168312948Y-75844244D01*
X168231971Y-75732786D01*
X168087213Y-75588028D01*
X167921613Y-75467715D01*
X167921612Y-75467714D01*
X167921610Y-75467713D01*
X167809000Y-75410335D01*
X167739223Y-75374781D01*
X167544534Y-75311522D01*
X167369995Y-75283878D01*
X167342352Y-75279500D01*
X167137648Y-75279500D01*
X167113329Y-75283351D01*
X166935465Y-75311522D01*
X166740776Y-75374781D01*
X166558386Y-75467715D01*
X166392786Y-75588028D01*
X166248028Y-75732786D01*
X166127715Y-75898386D01*
X166080485Y-75991080D01*
X166032510Y-76041876D01*
X165964689Y-76058671D01*
X165898554Y-76036134D01*
X165859515Y-75991080D01*
X165858883Y-75989840D01*
X165812287Y-75898390D01*
X165772948Y-75844244D01*
X165691971Y-75732786D01*
X165547213Y-75588028D01*
X165381613Y-75467715D01*
X165381612Y-75467714D01*
X165381610Y-75467713D01*
X165269000Y-75410335D01*
X165199223Y-75374781D01*
X165004534Y-75311522D01*
X164829995Y-75283878D01*
X164802352Y-75279500D01*
X164597648Y-75279500D01*
X164573329Y-75283351D01*
X164395465Y-75311522D01*
X164200776Y-75374781D01*
X164018386Y-75467715D01*
X163852786Y-75588028D01*
X163708032Y-75732782D01*
X163708026Y-75732789D01*
X163652231Y-75809584D01*
X163596901Y-75852250D01*
X163527288Y-75858228D01*
X163465493Y-75825622D01*
X163431765Y-75767361D01*
X163426558Y-75746957D01*
X163403136Y-75690415D01*
X163403135Y-75690415D01*
X162642962Y-76450589D01*
X162625925Y-76387007D01*
X162560099Y-76272993D01*
X162467007Y-76179901D01*
X162352993Y-76114075D01*
X162289410Y-76097037D01*
X163049583Y-75336863D01*
X163049583Y-75336862D01*
X162993052Y-75313447D01*
X162993035Y-75313440D01*
X162942053Y-75295455D01*
X162799780Y-75275000D01*
X161520214Y-75275000D01*
X161466237Y-75277893D01*
X161466235Y-75277893D01*
X161326969Y-75313438D01*
X161326956Y-75313442D01*
X161270415Y-75336862D01*
X162030590Y-76097037D01*
X161967007Y-76114075D01*
X161852993Y-76179901D01*
X161759901Y-76272993D01*
X161694075Y-76387007D01*
X161677037Y-76450590D01*
X160916862Y-75690415D01*
X160893449Y-75746940D01*
X160883329Y-75775626D01*
X160842461Y-75832297D01*
X160777442Y-75857877D01*
X160708915Y-75844244D01*
X160666075Y-75807255D01*
X160611971Y-75732786D01*
X160467213Y-75588028D01*
X160315763Y-75477995D01*
X160301613Y-75467715D01*
X160301612Y-75467714D01*
X160301610Y-75467713D01*
X160189000Y-75410335D01*
X160119223Y-75374781D01*
X159924534Y-75311522D01*
X159749995Y-75283878D01*
X159722352Y-75279500D01*
X159517648Y-75279500D01*
X159493329Y-75283351D01*
X159315465Y-75311522D01*
X159120776Y-75374781D01*
X158938386Y-75467715D01*
X158772786Y-75588028D01*
X158628028Y-75732786D01*
X158507715Y-75898386D01*
X158460485Y-75991080D01*
X158412510Y-76041876D01*
X158344689Y-76058671D01*
X158278554Y-76036134D01*
X158239515Y-75991080D01*
X158238883Y-75989840D01*
X158192287Y-75898390D01*
X158152948Y-75844244D01*
X158071971Y-75732786D01*
X157927213Y-75588028D01*
X157761613Y-75467715D01*
X157761612Y-75467714D01*
X157761610Y-75467713D01*
X157649000Y-75410335D01*
X157579223Y-75374781D01*
X157384534Y-75311522D01*
X157209995Y-75283878D01*
X157182352Y-75279500D01*
X156977648Y-75279500D01*
X156953329Y-75283351D01*
X156775465Y-75311522D01*
X156580776Y-75374781D01*
X156398386Y-75467715D01*
X156232786Y-75588028D01*
X156088028Y-75732786D01*
X155967715Y-75898386D01*
X155920485Y-75991080D01*
X155872510Y-76041876D01*
X155804689Y-76058671D01*
X155738554Y-76036134D01*
X155699515Y-75991080D01*
X155698883Y-75989840D01*
X155652287Y-75898390D01*
X155612948Y-75844244D01*
X155531971Y-75732786D01*
X155387213Y-75588028D01*
X155221613Y-75467715D01*
X155221612Y-75467714D01*
X155221610Y-75467713D01*
X155109000Y-75410335D01*
X155039223Y-75374781D01*
X154844534Y-75311522D01*
X154669995Y-75283878D01*
X154642352Y-75279500D01*
X154437648Y-75279500D01*
X154370254Y-75290174D01*
X154235464Y-75311523D01*
X154235461Y-75311523D01*
X154064818Y-75366969D01*
X153994977Y-75368964D01*
X153935144Y-75332884D01*
X153904316Y-75270183D01*
X153902500Y-75249038D01*
X153902500Y-74773097D01*
X153922185Y-74706058D01*
X153938819Y-74685416D01*
X162912416Y-65711819D01*
X162973739Y-65678334D01*
X163000097Y-65675500D01*
X165958331Y-65675500D01*
X165958347Y-65675501D01*
X165965943Y-65675501D01*
X166124054Y-65675501D01*
X166124057Y-65675501D01*
X166276785Y-65634577D01*
X166326904Y-65605639D01*
X166413716Y-65555520D01*
X166525520Y-65443716D01*
X166525520Y-65443714D01*
X166535728Y-65433507D01*
X166535730Y-65433504D01*
X171875158Y-60094075D01*
X171936479Y-60060592D01*
X172001151Y-60063825D01*
X172015466Y-60068477D01*
X172217648Y-60100500D01*
X172217649Y-60100500D01*
X172422351Y-60100500D01*
X172422352Y-60100500D01*
X172624534Y-60068477D01*
X172819219Y-60005220D01*
X173001610Y-59912287D01*
X173015768Y-59902001D01*
X173167213Y-59791971D01*
X173167215Y-59791968D01*
X173167219Y-59791966D01*
X173311966Y-59647219D01*
X173367766Y-59570415D01*
X173423096Y-59527750D01*
X173492710Y-59521771D01*
X173554505Y-59554376D01*
X173588233Y-59612635D01*
X173593438Y-59633030D01*
X173593440Y-59633037D01*
X173616863Y-59689583D01*
X174377037Y-58929409D01*
X174394075Y-58992993D01*
X174459901Y-59107007D01*
X174552993Y-59200099D01*
X174667007Y-59265925D01*
X174730590Y-59282962D01*
X173970415Y-60043135D01*
X173970415Y-60043136D01*
X174026946Y-60066552D01*
X174077946Y-60084544D01*
X174220219Y-60104999D01*
X174220221Y-60105000D01*
X175499786Y-60105000D01*
X175553762Y-60102106D01*
X175553764Y-60102106D01*
X175693023Y-60066563D01*
X175693035Y-60066559D01*
X175749582Y-60043135D01*
X174989409Y-59282962D01*
X175052993Y-59265925D01*
X175167007Y-59200099D01*
X175260099Y-59107007D01*
X175325925Y-58992993D01*
X175342962Y-58929409D01*
X176103135Y-59689582D01*
G37*
%TD.AperFunction*%
%TA.AperFunction,Conductor*%
G36*
X178741445Y-59343865D02*
G01*
X178780485Y-59388919D01*
X178827715Y-59481614D01*
X178948028Y-59647213D01*
X178948034Y-59647219D01*
X179092781Y-59791966D01*
X179258390Y-59912287D01*
X179271793Y-59919116D01*
X179322589Y-59967088D01*
X179339500Y-60029601D01*
X179339500Y-73442902D01*
X179319815Y-73509941D01*
X179303181Y-73530583D01*
X178221482Y-74612281D01*
X178221480Y-74612283D01*
X178214075Y-74625109D01*
X178208654Y-74634500D01*
X178142423Y-74749215D01*
X178101499Y-74901943D01*
X178101499Y-74901945D01*
X178101499Y-75070046D01*
X178101500Y-75070059D01*
X178101500Y-75275497D01*
X178081815Y-75342536D01*
X178029011Y-75388291D01*
X177959853Y-75398235D01*
X177921206Y-75385982D01*
X177899226Y-75374782D01*
X177704534Y-75311522D01*
X177529995Y-75283878D01*
X177502352Y-75279500D01*
X177297648Y-75279500D01*
X177273329Y-75283351D01*
X177095465Y-75311522D01*
X176900776Y-75374781D01*
X176718386Y-75467715D01*
X176552786Y-75588028D01*
X176408032Y-75732782D01*
X176408026Y-75732789D01*
X176352231Y-75809584D01*
X176296901Y-75852250D01*
X176227288Y-75858228D01*
X176165493Y-75825622D01*
X176131765Y-75767361D01*
X176126558Y-75746957D01*
X176103136Y-75690415D01*
X176103135Y-75690415D01*
X175342962Y-76450589D01*
X175325925Y-76387007D01*
X175260099Y-76272993D01*
X175167007Y-76179901D01*
X175052993Y-76114075D01*
X174989410Y-76097037D01*
X175749583Y-75336863D01*
X175749583Y-75336862D01*
X175693052Y-75313447D01*
X175693035Y-75313440D01*
X175642053Y-75295455D01*
X175499780Y-75275000D01*
X174220214Y-75275000D01*
X174166237Y-75277893D01*
X174166235Y-75277893D01*
X174026969Y-75313438D01*
X174026956Y-75313442D01*
X173970415Y-75336862D01*
X174730590Y-76097037D01*
X174667007Y-76114075D01*
X174552993Y-76179901D01*
X174459901Y-76272993D01*
X174394075Y-76387007D01*
X174377037Y-76450590D01*
X173616862Y-75690415D01*
X173593449Y-75746940D01*
X173583329Y-75775626D01*
X173542461Y-75832297D01*
X173477442Y-75857877D01*
X173408915Y-75844244D01*
X173366075Y-75807255D01*
X173311971Y-75732786D01*
X173167213Y-75588028D01*
X173015763Y-75477995D01*
X173001613Y-75467715D01*
X173001612Y-75467714D01*
X173001610Y-75467713D01*
X172889000Y-75410335D01*
X172819223Y-75374781D01*
X172624534Y-75311522D01*
X172449995Y-75283878D01*
X172422352Y-75279500D01*
X172217648Y-75279500D01*
X172150254Y-75290174D01*
X172015464Y-75311523D01*
X172015461Y-75311523D01*
X171888082Y-75352912D01*
X171818241Y-75354907D01*
X171758408Y-75318827D01*
X171727580Y-75256126D01*
X171725764Y-75234981D01*
X171725764Y-73713833D01*
X171745449Y-73646794D01*
X171762083Y-73626152D01*
X172455021Y-72933214D01*
X177880520Y-67507716D01*
X177959577Y-67370784D01*
X178000501Y-67218057D01*
X178000501Y-67059942D01*
X178000501Y-67052347D01*
X178000500Y-67052329D01*
X178000500Y-60029601D01*
X178020185Y-59962562D01*
X178068206Y-59919116D01*
X178081610Y-59912287D01*
X178247219Y-59791966D01*
X178391966Y-59647219D01*
X178391968Y-59647215D01*
X178391971Y-59647213D01*
X178512284Y-59481614D01*
X178512285Y-59481613D01*
X178512287Y-59481610D01*
X178559516Y-59388917D01*
X178607489Y-59338123D01*
X178675310Y-59321328D01*
X178741445Y-59343865D01*
G37*
%TD.AperFunction*%
%TA.AperFunction,Conductor*%
G36*
X183821445Y-59343865D02*
G01*
X183860485Y-59388919D01*
X183907715Y-59481614D01*
X184028028Y-59647213D01*
X184028034Y-59647219D01*
X184172781Y-59791966D01*
X184338390Y-59912287D01*
X184351793Y-59919116D01*
X184402589Y-59967088D01*
X184419500Y-60029601D01*
X184419500Y-68639330D01*
X184419499Y-68639348D01*
X184419499Y-68805054D01*
X184419498Y-68805054D01*
X184460423Y-68957785D01*
X184489358Y-69007900D01*
X184489359Y-69007904D01*
X184489360Y-69007904D01*
X184539479Y-69094714D01*
X184539481Y-69094717D01*
X184658349Y-69213585D01*
X184658355Y-69213590D01*
X190560370Y-75115605D01*
X190593855Y-75176928D01*
X190588871Y-75246620D01*
X190546999Y-75302553D01*
X190481535Y-75326970D01*
X190434371Y-75321217D01*
X190404536Y-75311523D01*
X190269746Y-75290174D01*
X190202352Y-75279500D01*
X189997648Y-75279500D01*
X189973329Y-75283351D01*
X189795465Y-75311522D01*
X189600776Y-75374781D01*
X189418386Y-75467715D01*
X189252786Y-75588028D01*
X189108032Y-75732782D01*
X189108026Y-75732789D01*
X189052231Y-75809584D01*
X188996901Y-75852250D01*
X188927288Y-75858228D01*
X188865493Y-75825622D01*
X188831765Y-75767361D01*
X188826558Y-75746957D01*
X188803136Y-75690415D01*
X188803135Y-75690415D01*
X188042962Y-76450589D01*
X188025925Y-76387007D01*
X187960099Y-76272993D01*
X187867007Y-76179901D01*
X187752993Y-76114075D01*
X187689410Y-76097037D01*
X188449583Y-75336863D01*
X188449583Y-75336862D01*
X188393052Y-75313447D01*
X188393035Y-75313440D01*
X188342053Y-75295455D01*
X188199780Y-75275000D01*
X186920214Y-75275000D01*
X186866237Y-75277893D01*
X186866235Y-75277893D01*
X186726969Y-75313438D01*
X186726956Y-75313442D01*
X186670415Y-75336862D01*
X187430590Y-76097037D01*
X187367007Y-76114075D01*
X187252993Y-76179901D01*
X187159901Y-76272993D01*
X187094075Y-76387007D01*
X187077037Y-76450590D01*
X186316862Y-75690415D01*
X186293449Y-75746940D01*
X186283329Y-75775626D01*
X186242461Y-75832297D01*
X186177442Y-75857877D01*
X186108915Y-75844244D01*
X186066075Y-75807255D01*
X186011971Y-75732786D01*
X185867213Y-75588028D01*
X185715763Y-75477995D01*
X185701613Y-75467715D01*
X185701612Y-75467714D01*
X185701610Y-75467713D01*
X185589000Y-75410335D01*
X185519223Y-75374781D01*
X185324534Y-75311522D01*
X185149995Y-75283878D01*
X185122352Y-75279500D01*
X184917648Y-75279500D01*
X184893329Y-75283351D01*
X184715465Y-75311522D01*
X184520776Y-75374781D01*
X184338386Y-75467715D01*
X184172786Y-75588028D01*
X184028028Y-75732786D01*
X183907715Y-75898386D01*
X183860485Y-75991080D01*
X183812510Y-76041876D01*
X183744689Y-76058671D01*
X183678554Y-76036134D01*
X183639515Y-75991080D01*
X183638883Y-75989840D01*
X183592287Y-75898390D01*
X183552948Y-75844244D01*
X183471971Y-75732786D01*
X183327213Y-75588028D01*
X183161613Y-75467715D01*
X183161612Y-75467714D01*
X183161610Y-75467713D01*
X183049000Y-75410335D01*
X182979223Y-75374781D01*
X182784534Y-75311522D01*
X182609995Y-75283878D01*
X182582352Y-75279500D01*
X182377648Y-75279500D01*
X182373912Y-75280091D01*
X182361387Y-75282075D01*
X182292094Y-75273117D01*
X182238644Y-75228119D01*
X182218007Y-75161367D01*
X182236734Y-75094054D01*
X182254309Y-75071924D01*
X182838506Y-74487728D01*
X182838511Y-74487724D01*
X182848714Y-74477520D01*
X182848716Y-74477520D01*
X182960520Y-74365716D01*
X183039577Y-74228784D01*
X183080500Y-74076057D01*
X183080500Y-60029601D01*
X183100185Y-59962562D01*
X183148206Y-59919116D01*
X183161610Y-59912287D01*
X183327219Y-59791966D01*
X183471966Y-59647219D01*
X183471968Y-59647215D01*
X183471971Y-59647213D01*
X183592284Y-59481614D01*
X183592285Y-59481613D01*
X183592287Y-59481610D01*
X183639516Y-59388917D01*
X183687489Y-59338123D01*
X183755310Y-59321328D01*
X183821445Y-59343865D01*
G37*
%TD.AperFunction*%
%TA.AperFunction,Conductor*%
G36*
X194265860Y-56204685D02*
G01*
X194311615Y-56257489D01*
X194322820Y-56309176D01*
X194294313Y-76036134D01*
X194221140Y-126671347D01*
X194201358Y-126738358D01*
X194148488Y-126784037D01*
X194079316Y-126793880D01*
X194015802Y-126764764D01*
X194009459Y-126758849D01*
X193894614Y-126644004D01*
X193709966Y-126509849D01*
X193506604Y-126406230D01*
X193289544Y-126335704D01*
X193064116Y-126300000D01*
X192550000Y-126300000D01*
X192550000Y-127149998D01*
X192489598Y-127124979D01*
X192364019Y-127100000D01*
X192235981Y-127100000D01*
X192110402Y-127124979D01*
X192050000Y-127149998D01*
X192050000Y-126300000D01*
X191535884Y-126300000D01*
X191310455Y-126335704D01*
X191093395Y-126406230D01*
X190890033Y-126509849D01*
X190705385Y-126644004D01*
X190544004Y-126805385D01*
X190409849Y-126990033D01*
X190306230Y-127193395D01*
X190235704Y-127410455D01*
X190221522Y-127500000D01*
X191699999Y-127500000D01*
X191674979Y-127560402D01*
X191650000Y-127685981D01*
X191650000Y-127814019D01*
X191674979Y-127939598D01*
X191699999Y-128000000D01*
X190221522Y-128000000D01*
X190235704Y-128089544D01*
X190306230Y-128306604D01*
X190409849Y-128509966D01*
X190544004Y-128694614D01*
X190705385Y-128855995D01*
X190890033Y-128990150D01*
X191093395Y-129093769D01*
X191310455Y-129164295D01*
X191535884Y-129200000D01*
X192050000Y-129200000D01*
X192050000Y-128350001D01*
X192110402Y-128375021D01*
X192235981Y-128400000D01*
X192364019Y-128400000D01*
X192489598Y-128375021D01*
X192550000Y-128350001D01*
X192550000Y-129200000D01*
X193064116Y-129200000D01*
X193289544Y-129164295D01*
X193506604Y-129093769D01*
X193709966Y-128990150D01*
X193894610Y-128855998D01*
X194006335Y-128744273D01*
X194067658Y-128710788D01*
X194137350Y-128715772D01*
X194193284Y-128757643D01*
X194217701Y-128823107D01*
X194218017Y-128832133D01*
X194213926Y-131663427D01*
X194194144Y-131730438D01*
X194141274Y-131776117D01*
X194072102Y-131785960D01*
X194008588Y-131756844D01*
X194002245Y-131750929D01*
X193894938Y-131643622D01*
X193710228Y-131509421D01*
X193506803Y-131405770D01*
X193289660Y-131335215D01*
X193064162Y-131299500D01*
X193064157Y-131299500D01*
X191535843Y-131299500D01*
X191535838Y-131299500D01*
X191310339Y-131335215D01*
X191093196Y-131405770D01*
X190889771Y-131509421D01*
X190705061Y-131643622D01*
X190543622Y-131805061D01*
X190409421Y-131989771D01*
X190305770Y-132193196D01*
X190235215Y-132410339D01*
X190199500Y-132635837D01*
X190199500Y-132864162D01*
X190235215Y-133089660D01*
X190305770Y-133306803D01*
X190383945Y-133460228D01*
X190409421Y-133510228D01*
X190543621Y-133694937D01*
X190705063Y-133856379D01*
X190889772Y-133990579D01*
X190985884Y-134039550D01*
X191093196Y-134094229D01*
X191093198Y-134094229D01*
X191093201Y-134094231D01*
X191209592Y-134132049D01*
X191310339Y-134164784D01*
X191535838Y-134200500D01*
X191535843Y-134200500D01*
X193064162Y-134200500D01*
X193289660Y-134164784D01*
X193333621Y-134150500D01*
X193506799Y-134094231D01*
X193710228Y-133990579D01*
X193894937Y-133856379D01*
X193999102Y-133752213D01*
X194060421Y-133718731D01*
X194130113Y-133723715D01*
X194186047Y-133765586D01*
X194210464Y-133831050D01*
X194210780Y-133840076D01*
X194196179Y-143945179D01*
X194176397Y-144012190D01*
X194123527Y-144057869D01*
X194072179Y-144069000D01*
X105801000Y-144069000D01*
X105733961Y-144049315D01*
X105688206Y-143996511D01*
X105677000Y-143945000D01*
X105677000Y-139852486D01*
X107749500Y-139852486D01*
X107749500Y-140147513D01*
X107768482Y-140291690D01*
X107788007Y-140439993D01*
X107788008Y-140439995D01*
X107864361Y-140724951D01*
X107864364Y-140724961D01*
X107977254Y-140997500D01*
X107977258Y-140997510D01*
X108124761Y-141252993D01*
X108304352Y-141487040D01*
X108304358Y-141487047D01*
X108512952Y-141695641D01*
X108512959Y-141695647D01*
X108747006Y-141875238D01*
X109002489Y-142022741D01*
X109002490Y-142022741D01*
X109002493Y-142022743D01*
X109275048Y-142135639D01*
X109560007Y-142211993D01*
X109852494Y-142250500D01*
X109852501Y-142250500D01*
X110147499Y-142250500D01*
X110147506Y-142250500D01*
X110439993Y-142211993D01*
X110724952Y-142135639D01*
X110997507Y-142022743D01*
X111252994Y-141875238D01*
X111487042Y-141695646D01*
X111695646Y-141487042D01*
X111875238Y-141252994D01*
X112022743Y-140997507D01*
X112135639Y-140724952D01*
X112211993Y-140439993D01*
X112250500Y-140147506D01*
X112250500Y-139852494D01*
X112250499Y-139852486D01*
X187749500Y-139852486D01*
X187749500Y-140147513D01*
X187768482Y-140291690D01*
X187788007Y-140439993D01*
X187788008Y-140439995D01*
X187864361Y-140724951D01*
X187864364Y-140724961D01*
X187977254Y-140997500D01*
X187977258Y-140997510D01*
X188124761Y-141252993D01*
X188304352Y-141487040D01*
X188304358Y-141487047D01*
X188512952Y-141695641D01*
X188512959Y-141695647D01*
X188747006Y-141875238D01*
X189002489Y-142022741D01*
X189002490Y-142022741D01*
X189002493Y-142022743D01*
X189275048Y-142135639D01*
X189560007Y-142211993D01*
X189852494Y-142250500D01*
X189852501Y-142250500D01*
X190147499Y-142250500D01*
X190147506Y-142250500D01*
X190439993Y-142211993D01*
X190724952Y-142135639D01*
X190997507Y-142022743D01*
X191252994Y-141875238D01*
X191487042Y-141695646D01*
X191695646Y-141487042D01*
X191875238Y-141252994D01*
X192022743Y-140997507D01*
X192135639Y-140724952D01*
X192211993Y-140439993D01*
X192250500Y-140147506D01*
X192250500Y-139852494D01*
X192211993Y-139560007D01*
X192135639Y-139275048D01*
X192022743Y-139002493D01*
X191875238Y-138747006D01*
X191695646Y-138512958D01*
X191695641Y-138512952D01*
X191487047Y-138304358D01*
X191487040Y-138304352D01*
X191252993Y-138124761D01*
X190997510Y-137977258D01*
X190997500Y-137977254D01*
X190724961Y-137864364D01*
X190724954Y-137864362D01*
X190724952Y-137864361D01*
X190439993Y-137788007D01*
X190391113Y-137781571D01*
X190147513Y-137749500D01*
X190147506Y-137749500D01*
X189852494Y-137749500D01*
X189852486Y-137749500D01*
X189574085Y-137786153D01*
X189560007Y-137788007D01*
X189275048Y-137864361D01*
X189275038Y-137864364D01*
X189002499Y-137977254D01*
X189002489Y-137977258D01*
X188747006Y-138124761D01*
X188512959Y-138304352D01*
X188512952Y-138304358D01*
X188304358Y-138512952D01*
X188304352Y-138512959D01*
X188124761Y-138747006D01*
X187977258Y-139002489D01*
X187977254Y-139002499D01*
X187864364Y-139275038D01*
X187864361Y-139275048D01*
X187788008Y-139560004D01*
X187788006Y-139560015D01*
X187749500Y-139852486D01*
X112250499Y-139852486D01*
X112211993Y-139560007D01*
X112135639Y-139275048D01*
X112022743Y-139002493D01*
X111875238Y-138747006D01*
X111695646Y-138512958D01*
X111695641Y-138512952D01*
X111487047Y-138304358D01*
X111487040Y-138304352D01*
X111252993Y-138124761D01*
X110997510Y-137977258D01*
X110997500Y-137977254D01*
X110724961Y-137864364D01*
X110724954Y-137864362D01*
X110724952Y-137864361D01*
X110439993Y-137788007D01*
X110391113Y-137781571D01*
X110147513Y-137749500D01*
X110147506Y-137749500D01*
X109852494Y-137749500D01*
X109852486Y-137749500D01*
X109574085Y-137786153D01*
X109560007Y-137788007D01*
X109275048Y-137864361D01*
X109275038Y-137864364D01*
X109002499Y-137977254D01*
X109002489Y-137977258D01*
X108747006Y-138124761D01*
X108512959Y-138304352D01*
X108512952Y-138304358D01*
X108304358Y-138512952D01*
X108304352Y-138512959D01*
X108124761Y-138747006D01*
X107977258Y-139002489D01*
X107977254Y-139002499D01*
X107864364Y-139275038D01*
X107864361Y-139275048D01*
X107788008Y-139560004D01*
X107788006Y-139560015D01*
X107749500Y-139852486D01*
X105677000Y-139852486D01*
X105677000Y-133659597D01*
X105696685Y-133592558D01*
X105749489Y-133546803D01*
X105818647Y-133536859D01*
X105882203Y-133565884D01*
X105901316Y-133586710D01*
X105943621Y-133644937D01*
X106105063Y-133806379D01*
X106289772Y-133940579D01*
X106385884Y-133989550D01*
X106493196Y-134044229D01*
X106493198Y-134044229D01*
X106493201Y-134044231D01*
X106609592Y-134082049D01*
X106710339Y-134114784D01*
X106935838Y-134150500D01*
X106935843Y-134150500D01*
X108464162Y-134150500D01*
X108689660Y-134114784D01*
X108752915Y-134094231D01*
X108906799Y-134044231D01*
X109110228Y-133940579D01*
X109294937Y-133806379D01*
X109456379Y-133644937D01*
X109590579Y-133460228D01*
X109694231Y-133256799D01*
X109764784Y-133039660D01*
X109800500Y-132814162D01*
X109800500Y-132585837D01*
X118099500Y-132585837D01*
X118099500Y-132814162D01*
X118135215Y-133039660D01*
X118205770Y-133256803D01*
X118309421Y-133460228D01*
X118443621Y-133644937D01*
X118605063Y-133806379D01*
X118789772Y-133940579D01*
X118885884Y-133989550D01*
X118993196Y-134044229D01*
X118993198Y-134044229D01*
X118993201Y-134044231D01*
X119109592Y-134082049D01*
X119210339Y-134114784D01*
X119435838Y-134150500D01*
X119435843Y-134150500D01*
X120964162Y-134150500D01*
X121189660Y-134114784D01*
X121252915Y-134094231D01*
X121406799Y-134044231D01*
X121610228Y-133940579D01*
X121794937Y-133806379D01*
X121956379Y-133644937D01*
X122090579Y-133460228D01*
X122194231Y-133256799D01*
X122264784Y-133039660D01*
X122300500Y-132814162D01*
X122300500Y-132585837D01*
X123599500Y-132585837D01*
X123599500Y-132814162D01*
X123635215Y-133039660D01*
X123705770Y-133256803D01*
X123809421Y-133460228D01*
X123943621Y-133644937D01*
X124105063Y-133806379D01*
X124289772Y-133940579D01*
X124385884Y-133989550D01*
X124493196Y-134044229D01*
X124493198Y-134044229D01*
X124493201Y-134044231D01*
X124609592Y-134082049D01*
X124710339Y-134114784D01*
X124935838Y-134150500D01*
X124935843Y-134150500D01*
X126464162Y-134150500D01*
X126689660Y-134114784D01*
X126752915Y-134094231D01*
X126906799Y-134044231D01*
X127110228Y-133940579D01*
X127294937Y-133806379D01*
X127456379Y-133644937D01*
X127590579Y-133460228D01*
X127694231Y-133256799D01*
X127764784Y-133039660D01*
X127800500Y-132814162D01*
X127800500Y-132585837D01*
X136099500Y-132585837D01*
X136099500Y-132814162D01*
X136135215Y-133039660D01*
X136205770Y-133256803D01*
X136309421Y-133460228D01*
X136443621Y-133644937D01*
X136605063Y-133806379D01*
X136789772Y-133940579D01*
X136885884Y-133989550D01*
X136993196Y-134044229D01*
X136993198Y-134044229D01*
X136993201Y-134044231D01*
X137109592Y-134082049D01*
X137210339Y-134114784D01*
X137435838Y-134150500D01*
X137435843Y-134150500D01*
X138964162Y-134150500D01*
X139189660Y-134114784D01*
X139252915Y-134094231D01*
X139406799Y-134044231D01*
X139610228Y-133940579D01*
X139794937Y-133806379D01*
X139956379Y-133644937D01*
X140090579Y-133460228D01*
X140194231Y-133256799D01*
X140264784Y-133039660D01*
X140300500Y-132814162D01*
X140300500Y-132635837D01*
X141649500Y-132635837D01*
X141649500Y-132864162D01*
X141685215Y-133089660D01*
X141755770Y-133306803D01*
X141833945Y-133460228D01*
X141859421Y-133510228D01*
X141993621Y-133694937D01*
X142155063Y-133856379D01*
X142339772Y-133990579D01*
X142435884Y-134039550D01*
X142543196Y-134094229D01*
X142543198Y-134094229D01*
X142543201Y-134094231D01*
X142659592Y-134132049D01*
X142760339Y-134164784D01*
X142985838Y-134200500D01*
X142985843Y-134200500D01*
X144514162Y-134200500D01*
X144739660Y-134164784D01*
X144783621Y-134150500D01*
X144956799Y-134094231D01*
X145160228Y-133990579D01*
X145344937Y-133856379D01*
X145506379Y-133694937D01*
X145640579Y-133510228D01*
X145744231Y-133306799D01*
X145814784Y-133089660D01*
X145822703Y-133039660D01*
X145850500Y-132864162D01*
X145850500Y-132635837D01*
X154149500Y-132635837D01*
X154149500Y-132864162D01*
X154185215Y-133089660D01*
X154255770Y-133306803D01*
X154333945Y-133460228D01*
X154359421Y-133510228D01*
X154493621Y-133694937D01*
X154655063Y-133856379D01*
X154839772Y-133990579D01*
X154935884Y-134039550D01*
X155043196Y-134094229D01*
X155043198Y-134094229D01*
X155043201Y-134094231D01*
X155159592Y-134132049D01*
X155260339Y-134164784D01*
X155485838Y-134200500D01*
X155485843Y-134200500D01*
X157014162Y-134200500D01*
X157239660Y-134164784D01*
X157283621Y-134150500D01*
X157456799Y-134094231D01*
X157660228Y-133990579D01*
X157844937Y-133856379D01*
X158006379Y-133694937D01*
X158140579Y-133510228D01*
X158244231Y-133306799D01*
X158314784Y-133089660D01*
X158322703Y-133039660D01*
X158350500Y-132864162D01*
X158350500Y-132635837D01*
X159799500Y-132635837D01*
X159799500Y-132864162D01*
X159835215Y-133089660D01*
X159905770Y-133306803D01*
X159983945Y-133460228D01*
X160009421Y-133510228D01*
X160143621Y-133694937D01*
X160305063Y-133856379D01*
X160489772Y-133990579D01*
X160585884Y-134039550D01*
X160693196Y-134094229D01*
X160693198Y-134094229D01*
X160693201Y-134094231D01*
X160809592Y-134132049D01*
X160910339Y-134164784D01*
X161135838Y-134200500D01*
X161135843Y-134200500D01*
X162664162Y-134200500D01*
X162889660Y-134164784D01*
X162933621Y-134150500D01*
X163106799Y-134094231D01*
X163310228Y-133990579D01*
X163494937Y-133856379D01*
X163656379Y-133694937D01*
X163790579Y-133510228D01*
X163894231Y-133306799D01*
X163964784Y-133089660D01*
X163972703Y-133039660D01*
X164000500Y-132864162D01*
X164000500Y-132635837D01*
X172299500Y-132635837D01*
X172299500Y-132864162D01*
X172335215Y-133089660D01*
X172405770Y-133306803D01*
X172483945Y-133460228D01*
X172509421Y-133510228D01*
X172643621Y-133694937D01*
X172805063Y-133856379D01*
X172989772Y-133990579D01*
X173085884Y-134039550D01*
X173193196Y-134094229D01*
X173193198Y-134094229D01*
X173193201Y-134094231D01*
X173309592Y-134132049D01*
X173410339Y-134164784D01*
X173635838Y-134200500D01*
X173635843Y-134200500D01*
X175164162Y-134200500D01*
X175389660Y-134164784D01*
X175433621Y-134150500D01*
X175606799Y-134094231D01*
X175810228Y-133990579D01*
X175994937Y-133856379D01*
X176156379Y-133694937D01*
X176290579Y-133510228D01*
X176394231Y-133306799D01*
X176464784Y-133089660D01*
X176472703Y-133039660D01*
X176500500Y-132864162D01*
X176500500Y-132635837D01*
X177699500Y-132635837D01*
X177699500Y-132864162D01*
X177735215Y-133089660D01*
X177805770Y-133306803D01*
X177883945Y-133460228D01*
X177909421Y-133510228D01*
X178043621Y-133694937D01*
X178205063Y-133856379D01*
X178389772Y-133990579D01*
X178485884Y-134039550D01*
X178593196Y-134094229D01*
X178593198Y-134094229D01*
X178593201Y-134094231D01*
X178709592Y-134132049D01*
X178810339Y-134164784D01*
X179035838Y-134200500D01*
X179035843Y-134200500D01*
X180564162Y-134200500D01*
X180789660Y-134164784D01*
X180833621Y-134150500D01*
X181006799Y-134094231D01*
X181210228Y-133990579D01*
X181394937Y-133856379D01*
X181556379Y-133694937D01*
X181690579Y-133510228D01*
X181794231Y-133306799D01*
X181864784Y-133089660D01*
X181872703Y-133039660D01*
X181900500Y-132864162D01*
X181900500Y-132635837D01*
X181864784Y-132410339D01*
X181794229Y-132193196D01*
X181690578Y-131989771D01*
X181556379Y-131805063D01*
X181394937Y-131643621D01*
X181210228Y-131509421D01*
X181006803Y-131405770D01*
X180789660Y-131335215D01*
X180564162Y-131299500D01*
X180564157Y-131299500D01*
X179035843Y-131299500D01*
X179035838Y-131299500D01*
X178810339Y-131335215D01*
X178593196Y-131405770D01*
X178389771Y-131509421D01*
X178205061Y-131643622D01*
X178043622Y-131805061D01*
X177909421Y-131989771D01*
X177805770Y-132193196D01*
X177735215Y-132410339D01*
X177699500Y-132635837D01*
X176500500Y-132635837D01*
X176464784Y-132410339D01*
X176394229Y-132193196D01*
X176290578Y-131989771D01*
X176156379Y-131805063D01*
X175994937Y-131643621D01*
X175810228Y-131509421D01*
X175606803Y-131405770D01*
X175389660Y-131335215D01*
X175164162Y-131299500D01*
X175164157Y-131299500D01*
X173635843Y-131299500D01*
X173635838Y-131299500D01*
X173410339Y-131335215D01*
X173193196Y-131405770D01*
X172989771Y-131509421D01*
X172805061Y-131643622D01*
X172643622Y-131805061D01*
X172509421Y-131989771D01*
X172405770Y-132193196D01*
X172335215Y-132410339D01*
X172299500Y-132635837D01*
X164000500Y-132635837D01*
X163964784Y-132410339D01*
X163894229Y-132193196D01*
X163790578Y-131989771D01*
X163656379Y-131805063D01*
X163494937Y-131643621D01*
X163310228Y-131509421D01*
X163106803Y-131405770D01*
X162889660Y-131335215D01*
X162664162Y-131299500D01*
X162664157Y-131299500D01*
X161135843Y-131299500D01*
X161135838Y-131299500D01*
X160910339Y-131335215D01*
X160693196Y-131405770D01*
X160489771Y-131509421D01*
X160305061Y-131643622D01*
X160143622Y-131805061D01*
X160009421Y-131989771D01*
X159905770Y-132193196D01*
X159835215Y-132410339D01*
X159799500Y-132635837D01*
X158350500Y-132635837D01*
X158314784Y-132410339D01*
X158244229Y-132193196D01*
X158140578Y-131989771D01*
X158006379Y-131805063D01*
X157844937Y-131643621D01*
X157660228Y-131509421D01*
X157456803Y-131405770D01*
X157239660Y-131335215D01*
X157014162Y-131299500D01*
X157014157Y-131299500D01*
X155485843Y-131299500D01*
X155485838Y-131299500D01*
X155260339Y-131335215D01*
X155043196Y-131405770D01*
X154839771Y-131509421D01*
X154655061Y-131643622D01*
X154493622Y-131805061D01*
X154359421Y-131989771D01*
X154255770Y-132193196D01*
X154185215Y-132410339D01*
X154149500Y-132635837D01*
X145850500Y-132635837D01*
X145814784Y-132410339D01*
X145744229Y-132193196D01*
X145640578Y-131989771D01*
X145506379Y-131805063D01*
X145344937Y-131643621D01*
X145160228Y-131509421D01*
X144956803Y-131405770D01*
X144739660Y-131335215D01*
X144514162Y-131299500D01*
X144514157Y-131299500D01*
X142985843Y-131299500D01*
X142985838Y-131299500D01*
X142760339Y-131335215D01*
X142543196Y-131405770D01*
X142339771Y-131509421D01*
X142155061Y-131643622D01*
X141993622Y-131805061D01*
X141859421Y-131989771D01*
X141755770Y-132193196D01*
X141685215Y-132410339D01*
X141649500Y-132635837D01*
X140300500Y-132635837D01*
X140300500Y-132585837D01*
X140264784Y-132360339D01*
X140194229Y-132143196D01*
X140116055Y-131989772D01*
X140090579Y-131939772D01*
X139956379Y-131755063D01*
X139794937Y-131593621D01*
X139610228Y-131459421D01*
X139406803Y-131355770D01*
X139189660Y-131285215D01*
X138964162Y-131249500D01*
X138964157Y-131249500D01*
X137435843Y-131249500D01*
X137435838Y-131249500D01*
X137210339Y-131285215D01*
X136993196Y-131355770D01*
X136789771Y-131459421D01*
X136605061Y-131593622D01*
X136443622Y-131755061D01*
X136309421Y-131939771D01*
X136205770Y-132143196D01*
X136135215Y-132360339D01*
X136099500Y-132585837D01*
X127800500Y-132585837D01*
X127764784Y-132360339D01*
X127694229Y-132143196D01*
X127616055Y-131989772D01*
X127590579Y-131939772D01*
X127456379Y-131755063D01*
X127294937Y-131593621D01*
X127110228Y-131459421D01*
X126906803Y-131355770D01*
X126689660Y-131285215D01*
X126464162Y-131249500D01*
X126464157Y-131249500D01*
X124935843Y-131249500D01*
X124935838Y-131249500D01*
X124710339Y-131285215D01*
X124493196Y-131355770D01*
X124289771Y-131459421D01*
X124105061Y-131593622D01*
X123943622Y-131755061D01*
X123809421Y-131939771D01*
X123705770Y-132143196D01*
X123635215Y-132360339D01*
X123599500Y-132585837D01*
X122300500Y-132585837D01*
X122264784Y-132360339D01*
X122194229Y-132143196D01*
X122116055Y-131989772D01*
X122090579Y-131939772D01*
X121956379Y-131755063D01*
X121794937Y-131593621D01*
X121610228Y-131459421D01*
X121406803Y-131355770D01*
X121189660Y-131285215D01*
X120964162Y-131249500D01*
X120964157Y-131249500D01*
X119435843Y-131249500D01*
X119435838Y-131249500D01*
X119210339Y-131285215D01*
X118993196Y-131355770D01*
X118789771Y-131459421D01*
X118605061Y-131593622D01*
X118443622Y-131755061D01*
X118309421Y-131939771D01*
X118205770Y-132143196D01*
X118135215Y-132360339D01*
X118099500Y-132585837D01*
X109800500Y-132585837D01*
X109764784Y-132360339D01*
X109694229Y-132143196D01*
X109616055Y-131989772D01*
X109590579Y-131939772D01*
X109456379Y-131755063D01*
X109294937Y-131593621D01*
X109110228Y-131459421D01*
X108906803Y-131355770D01*
X108689660Y-131285215D01*
X108464162Y-131249500D01*
X108464157Y-131249500D01*
X106935843Y-131249500D01*
X106935838Y-131249500D01*
X106710339Y-131285215D01*
X106493196Y-131355770D01*
X106289771Y-131459421D01*
X106105061Y-131593622D01*
X105943622Y-131755061D01*
X105901318Y-131813288D01*
X105845987Y-131855953D01*
X105776374Y-131861932D01*
X105714579Y-131829326D01*
X105680222Y-131768487D01*
X105677000Y-131740402D01*
X105677000Y-128658747D01*
X105696685Y-128591708D01*
X105749489Y-128545953D01*
X105818647Y-128536009D01*
X105882203Y-128565034D01*
X105901318Y-128585862D01*
X105943999Y-128644608D01*
X105944004Y-128644614D01*
X106105385Y-128805995D01*
X106290033Y-128940150D01*
X106493395Y-129043769D01*
X106710455Y-129114295D01*
X106935884Y-129150000D01*
X107450000Y-129150000D01*
X107450000Y-128300001D01*
X107510402Y-128325021D01*
X107635981Y-128350000D01*
X107764019Y-128350000D01*
X107889598Y-128325021D01*
X107950000Y-128300001D01*
X107950000Y-129150000D01*
X108464116Y-129150000D01*
X108689544Y-129114295D01*
X108906604Y-129043769D01*
X109109966Y-128940150D01*
X109294614Y-128805995D01*
X109455995Y-128644614D01*
X109590150Y-128459966D01*
X109693769Y-128256604D01*
X109764295Y-128039544D01*
X109778478Y-127950000D01*
X108300001Y-127950000D01*
X108325021Y-127889598D01*
X108350000Y-127764019D01*
X108350000Y-127635981D01*
X108325021Y-127510402D01*
X108300001Y-127450000D01*
X109778478Y-127450000D01*
X118121522Y-127450000D01*
X119599999Y-127450000D01*
X119574979Y-127510402D01*
X119550000Y-127635981D01*
X119550000Y-127764019D01*
X119574979Y-127889598D01*
X119599999Y-127950000D01*
X118121522Y-127950000D01*
X118135704Y-128039544D01*
X118206230Y-128256604D01*
X118309849Y-128459966D01*
X118444004Y-128644614D01*
X118605385Y-128805995D01*
X118790033Y-128940150D01*
X118993395Y-129043769D01*
X119210455Y-129114295D01*
X119435884Y-129150000D01*
X119950000Y-129150000D01*
X119950000Y-128300001D01*
X120010402Y-128325021D01*
X120135981Y-128350000D01*
X120264019Y-128350000D01*
X120389598Y-128325021D01*
X120450000Y-128300001D01*
X120450000Y-129150000D01*
X120964116Y-129150000D01*
X121189544Y-129114295D01*
X121406604Y-129043769D01*
X121609966Y-128940150D01*
X121794614Y-128805995D01*
X121955995Y-128644614D01*
X122090150Y-128459966D01*
X122193769Y-128256604D01*
X122264295Y-128039544D01*
X122278478Y-127950000D01*
X120800001Y-127950000D01*
X120825021Y-127889598D01*
X120850000Y-127764019D01*
X120850000Y-127635981D01*
X120825021Y-127510402D01*
X120800001Y-127450000D01*
X122278478Y-127450000D01*
X123621522Y-127450000D01*
X125099999Y-127450000D01*
X125074979Y-127510402D01*
X125050000Y-127635981D01*
X125050000Y-127764019D01*
X125074979Y-127889598D01*
X125099999Y-127950000D01*
X123621522Y-127950000D01*
X123635704Y-128039544D01*
X123706230Y-128256604D01*
X123809849Y-128459966D01*
X123944004Y-128644614D01*
X124105385Y-128805995D01*
X124290033Y-128940150D01*
X124493395Y-129043769D01*
X124710455Y-129114295D01*
X124935884Y-129150000D01*
X125450000Y-129150000D01*
X125450000Y-128300001D01*
X125510402Y-128325021D01*
X125635981Y-128350000D01*
X125764019Y-128350000D01*
X125889598Y-128325021D01*
X125950000Y-128300001D01*
X125950000Y-129150000D01*
X126464116Y-129150000D01*
X126689544Y-129114295D01*
X126906604Y-129043769D01*
X127109966Y-128940150D01*
X127294614Y-128805995D01*
X127455995Y-128644614D01*
X127590150Y-128459966D01*
X127693769Y-128256604D01*
X127764295Y-128039544D01*
X127778478Y-127950000D01*
X126300001Y-127950000D01*
X126325021Y-127889598D01*
X126350000Y-127764019D01*
X126350000Y-127635981D01*
X126325021Y-127510402D01*
X126300001Y-127450000D01*
X127778478Y-127450000D01*
X136121522Y-127450000D01*
X137599999Y-127450000D01*
X137574979Y-127510402D01*
X137550000Y-127635981D01*
X137550000Y-127764019D01*
X137574979Y-127889598D01*
X137599999Y-127950000D01*
X136121522Y-127950000D01*
X136135704Y-128039544D01*
X136206230Y-128256604D01*
X136309849Y-128459966D01*
X136444004Y-128644614D01*
X136605385Y-128805995D01*
X136790033Y-128940150D01*
X136993395Y-129043769D01*
X137210455Y-129114295D01*
X137435884Y-129150000D01*
X137950000Y-129150000D01*
X137950000Y-128300001D01*
X138010402Y-128325021D01*
X138135981Y-128350000D01*
X138264019Y-128350000D01*
X138389598Y-128325021D01*
X138450000Y-128300001D01*
X138450000Y-129150000D01*
X138964116Y-129150000D01*
X139189544Y-129114295D01*
X139406604Y-129043769D01*
X139609966Y-128940150D01*
X139794614Y-128805995D01*
X139955995Y-128644614D01*
X140090150Y-128459966D01*
X140193769Y-128256604D01*
X140264295Y-128039544D01*
X140278479Y-127950000D01*
X138800001Y-127950000D01*
X138825021Y-127889598D01*
X138850000Y-127764019D01*
X138850000Y-127635981D01*
X138825021Y-127510402D01*
X138820712Y-127500000D01*
X141671522Y-127500000D01*
X143149999Y-127500000D01*
X143124979Y-127560402D01*
X143100000Y-127685981D01*
X143100000Y-127814019D01*
X143124979Y-127939598D01*
X143149999Y-128000000D01*
X141671522Y-128000000D01*
X141685704Y-128089544D01*
X141756230Y-128306604D01*
X141859849Y-128509966D01*
X141994004Y-128694614D01*
X142155385Y-128855995D01*
X142340033Y-128990150D01*
X142543395Y-129093769D01*
X142760455Y-129164295D01*
X142985884Y-129200000D01*
X143500000Y-129200000D01*
X143500000Y-128350001D01*
X143560402Y-128375021D01*
X143685981Y-128400000D01*
X143814019Y-128400000D01*
X143939598Y-128375021D01*
X144000000Y-128350001D01*
X144000000Y-129200000D01*
X144514116Y-129200000D01*
X144739544Y-129164295D01*
X144956604Y-129093769D01*
X145159966Y-128990150D01*
X145344614Y-128855995D01*
X145505995Y-128694614D01*
X145640150Y-128509966D01*
X145743769Y-128306604D01*
X145814295Y-128089544D01*
X145828478Y-128000000D01*
X144350001Y-128000000D01*
X144375021Y-127939598D01*
X144400000Y-127814019D01*
X144400000Y-127685981D01*
X144375021Y-127560402D01*
X144350001Y-127500000D01*
X145828478Y-127500000D01*
X154171522Y-127500000D01*
X155649999Y-127500000D01*
X155624979Y-127560402D01*
X155600000Y-127685981D01*
X155600000Y-127814019D01*
X155624979Y-127939598D01*
X155649999Y-128000000D01*
X154171522Y-128000000D01*
X154185704Y-128089544D01*
X154256230Y-128306604D01*
X154359849Y-128509966D01*
X154494004Y-128694614D01*
X154655385Y-128855995D01*
X154840033Y-128990150D01*
X155043395Y-129093769D01*
X155260455Y-129164295D01*
X155485884Y-129200000D01*
X156000000Y-129200000D01*
X156000000Y-128350001D01*
X156060402Y-128375021D01*
X156185981Y-128400000D01*
X156314019Y-128400000D01*
X156439598Y-128375021D01*
X156500000Y-128350001D01*
X156500000Y-129200000D01*
X157014116Y-129200000D01*
X157239544Y-129164295D01*
X157456604Y-129093769D01*
X157659966Y-128990150D01*
X157844614Y-128855995D01*
X158005995Y-128694614D01*
X158140150Y-128509966D01*
X158243769Y-128306604D01*
X158314295Y-128089544D01*
X158328478Y-128000000D01*
X156850001Y-128000000D01*
X156875021Y-127939598D01*
X156900000Y-127814019D01*
X156900000Y-127685981D01*
X156875021Y-127560402D01*
X156850001Y-127500000D01*
X158328478Y-127500000D01*
X159821522Y-127500000D01*
X161299999Y-127500000D01*
X161274979Y-127560402D01*
X161250000Y-127685981D01*
X161250000Y-127814019D01*
X161274979Y-127939598D01*
X161299999Y-128000000D01*
X159821522Y-128000000D01*
X159835704Y-128089544D01*
X159906230Y-128306604D01*
X160009849Y-128509966D01*
X160144004Y-128694614D01*
X160305385Y-128855995D01*
X160490033Y-128990150D01*
X160693395Y-129093769D01*
X160910455Y-129164295D01*
X161135884Y-129200000D01*
X161650000Y-129200000D01*
X161650000Y-128350001D01*
X161710402Y-128375021D01*
X161835981Y-128400000D01*
X161964019Y-128400000D01*
X162089598Y-128375021D01*
X162150000Y-128350001D01*
X162150000Y-129200000D01*
X162664116Y-129200000D01*
X162889544Y-129164295D01*
X163106604Y-129093769D01*
X163309966Y-128990150D01*
X163494614Y-128855995D01*
X163655995Y-128694614D01*
X163790150Y-128509966D01*
X163893769Y-128306604D01*
X163964295Y-128089544D01*
X163978478Y-128000000D01*
X162500001Y-128000000D01*
X162525021Y-127939598D01*
X162550000Y-127814019D01*
X162550000Y-127685981D01*
X162525021Y-127560402D01*
X162500001Y-127500000D01*
X163978478Y-127500000D01*
X172321522Y-127500000D01*
X173799999Y-127500000D01*
X173774979Y-127560402D01*
X173750000Y-127685981D01*
X173750000Y-127814019D01*
X173774979Y-127939598D01*
X173799999Y-128000000D01*
X172321522Y-128000000D01*
X172335704Y-128089544D01*
X172406230Y-128306604D01*
X172509849Y-128509966D01*
X172644004Y-128694614D01*
X172805385Y-128855995D01*
X172990033Y-128990150D01*
X173193395Y-129093769D01*
X173410455Y-129164295D01*
X173635884Y-129200000D01*
X174150000Y-129200000D01*
X174150000Y-128350001D01*
X174210402Y-128375021D01*
X174335981Y-128400000D01*
X174464019Y-128400000D01*
X174589598Y-128375021D01*
X174650000Y-128350001D01*
X174650000Y-129200000D01*
X175164116Y-129200000D01*
X175389544Y-129164295D01*
X175606604Y-129093769D01*
X175809966Y-128990150D01*
X175994614Y-128855995D01*
X176155995Y-128694614D01*
X176290150Y-128509966D01*
X176393769Y-128306604D01*
X176464295Y-128089544D01*
X176478478Y-128000000D01*
X175000001Y-128000000D01*
X175025021Y-127939598D01*
X175050000Y-127814019D01*
X175050000Y-127685981D01*
X175025021Y-127560402D01*
X175000001Y-127500000D01*
X176478478Y-127500000D01*
X177721522Y-127500000D01*
X179199999Y-127500000D01*
X179174979Y-127560402D01*
X179150000Y-127685981D01*
X179150000Y-127814019D01*
X179174979Y-127939598D01*
X179199999Y-128000000D01*
X177721522Y-128000000D01*
X177735704Y-128089544D01*
X177806230Y-128306604D01*
X177909849Y-128509966D01*
X178044004Y-128694614D01*
X178205385Y-128855995D01*
X178390033Y-128990150D01*
X178593395Y-129093769D01*
X178810455Y-129164295D01*
X179035884Y-129200000D01*
X179550000Y-129200000D01*
X179550000Y-128350001D01*
X179610402Y-128375021D01*
X179735981Y-128400000D01*
X179864019Y-128400000D01*
X179989598Y-128375021D01*
X180050000Y-128350001D01*
X180050000Y-129200000D01*
X180564116Y-129200000D01*
X180789544Y-129164295D01*
X181006604Y-129093769D01*
X181209966Y-128990150D01*
X181394614Y-128855995D01*
X181555995Y-128694614D01*
X181690150Y-128509966D01*
X181793769Y-128306604D01*
X181864295Y-128089544D01*
X181878478Y-128000000D01*
X180400001Y-128000000D01*
X180425021Y-127939598D01*
X180450000Y-127814019D01*
X180450000Y-127685981D01*
X180425021Y-127560402D01*
X180400001Y-127500000D01*
X181878478Y-127500000D01*
X181864295Y-127410455D01*
X181793769Y-127193395D01*
X181690150Y-126990033D01*
X181555995Y-126805385D01*
X181394614Y-126644004D01*
X181209966Y-126509849D01*
X181006604Y-126406230D01*
X180789544Y-126335704D01*
X180564116Y-126300000D01*
X180050000Y-126300000D01*
X180050000Y-127149998D01*
X179989598Y-127124979D01*
X179864019Y-127100000D01*
X179735981Y-127100000D01*
X179610402Y-127124979D01*
X179550000Y-127149998D01*
X179550000Y-126300000D01*
X179035884Y-126300000D01*
X178810455Y-126335704D01*
X178593395Y-126406230D01*
X178390033Y-126509849D01*
X178205385Y-126644004D01*
X178044004Y-126805385D01*
X177909849Y-126990033D01*
X177806230Y-127193395D01*
X177735704Y-127410455D01*
X177721522Y-127500000D01*
X176478478Y-127500000D01*
X176464295Y-127410455D01*
X176393769Y-127193395D01*
X176290150Y-126990033D01*
X176155995Y-126805385D01*
X175994614Y-126644004D01*
X175809966Y-126509849D01*
X175606604Y-126406230D01*
X175389544Y-126335704D01*
X175164116Y-126300000D01*
X174650000Y-126300000D01*
X174650000Y-127149998D01*
X174589598Y-127124979D01*
X174464019Y-127100000D01*
X174335981Y-127100000D01*
X174210402Y-127124979D01*
X174150000Y-127149998D01*
X174150000Y-126300000D01*
X173635884Y-126300000D01*
X173410455Y-126335704D01*
X173193395Y-126406230D01*
X172990033Y-126509849D01*
X172805385Y-126644004D01*
X172644004Y-126805385D01*
X172509849Y-126990033D01*
X172406230Y-127193395D01*
X172335704Y-127410455D01*
X172321522Y-127500000D01*
X163978478Y-127500000D01*
X163964295Y-127410455D01*
X163893769Y-127193395D01*
X163790150Y-126990033D01*
X163655995Y-126805385D01*
X163494614Y-126644004D01*
X163309966Y-126509849D01*
X163106604Y-126406230D01*
X162889544Y-126335704D01*
X162664116Y-126300000D01*
X162150000Y-126300000D01*
X162150000Y-127149998D01*
X162089598Y-127124979D01*
X161964019Y-127100000D01*
X161835981Y-127100000D01*
X161710402Y-127124979D01*
X161650000Y-127149998D01*
X161650000Y-126300000D01*
X161135884Y-126300000D01*
X160910455Y-126335704D01*
X160693395Y-126406230D01*
X160490033Y-126509849D01*
X160305385Y-126644004D01*
X160144004Y-126805385D01*
X160009849Y-126990033D01*
X159906230Y-127193395D01*
X159835704Y-127410455D01*
X159821522Y-127500000D01*
X158328478Y-127500000D01*
X158314295Y-127410455D01*
X158243769Y-127193395D01*
X158140150Y-126990033D01*
X158005995Y-126805385D01*
X157844614Y-126644004D01*
X157659966Y-126509849D01*
X157456604Y-126406230D01*
X157239544Y-126335704D01*
X157014116Y-126300000D01*
X156500000Y-126300000D01*
X156500000Y-127149998D01*
X156439598Y-127124979D01*
X156314019Y-127100000D01*
X156185981Y-127100000D01*
X156060402Y-127124979D01*
X156000000Y-127149998D01*
X156000000Y-126300000D01*
X155485884Y-126300000D01*
X155260455Y-126335704D01*
X155043395Y-126406230D01*
X154840033Y-126509849D01*
X154655385Y-126644004D01*
X154494004Y-126805385D01*
X154359849Y-126990033D01*
X154256230Y-127193395D01*
X154185704Y-127410455D01*
X154171522Y-127500000D01*
X145828478Y-127500000D01*
X145814295Y-127410455D01*
X145743769Y-127193395D01*
X145640150Y-126990033D01*
X145505995Y-126805385D01*
X145344614Y-126644004D01*
X145159966Y-126509849D01*
X144956604Y-126406230D01*
X144739544Y-126335704D01*
X144514116Y-126300000D01*
X144000000Y-126300000D01*
X144000000Y-127149998D01*
X143939598Y-127124979D01*
X143814019Y-127100000D01*
X143685981Y-127100000D01*
X143560402Y-127124979D01*
X143500000Y-127149998D01*
X143500000Y-126300000D01*
X142985884Y-126300000D01*
X142760455Y-126335704D01*
X142543395Y-126406230D01*
X142340033Y-126509849D01*
X142155385Y-126644004D01*
X141994004Y-126805385D01*
X141859849Y-126990033D01*
X141756230Y-127193395D01*
X141685704Y-127410455D01*
X141671522Y-127500000D01*
X138820712Y-127500000D01*
X138800001Y-127450000D01*
X140278478Y-127450000D01*
X140278478Y-127449999D01*
X140264295Y-127360455D01*
X140193769Y-127143395D01*
X140090150Y-126940033D01*
X139955995Y-126755385D01*
X139794614Y-126594004D01*
X139609966Y-126459849D01*
X139406604Y-126356230D01*
X139189544Y-126285704D01*
X138964116Y-126250000D01*
X138450000Y-126250000D01*
X138450000Y-127099998D01*
X138389598Y-127074979D01*
X138264019Y-127050000D01*
X138135981Y-127050000D01*
X138010402Y-127074979D01*
X137950000Y-127099998D01*
X137950000Y-126250000D01*
X137435884Y-126250000D01*
X137210455Y-126285704D01*
X136993395Y-126356230D01*
X136790033Y-126459849D01*
X136605385Y-126594004D01*
X136444004Y-126755385D01*
X136309849Y-126940033D01*
X136206230Y-127143395D01*
X136135704Y-127360455D01*
X136121522Y-127450000D01*
X127778478Y-127450000D01*
X127764295Y-127360455D01*
X127693769Y-127143395D01*
X127590150Y-126940033D01*
X127455995Y-126755385D01*
X127294614Y-126594004D01*
X127109966Y-126459849D01*
X126906604Y-126356230D01*
X126689544Y-126285704D01*
X126464116Y-126250000D01*
X125950000Y-126250000D01*
X125950000Y-127099998D01*
X125889598Y-127074979D01*
X125764019Y-127050000D01*
X125635981Y-127050000D01*
X125510402Y-127074979D01*
X125450000Y-127099998D01*
X125450000Y-126250000D01*
X124935884Y-126250000D01*
X124710455Y-126285704D01*
X124493395Y-126356230D01*
X124290033Y-126459849D01*
X124105385Y-126594004D01*
X123944004Y-126755385D01*
X123809849Y-126940033D01*
X123706230Y-127143395D01*
X123635704Y-127360455D01*
X123621522Y-127450000D01*
X122278478Y-127450000D01*
X122264295Y-127360455D01*
X122193769Y-127143395D01*
X122090150Y-126940033D01*
X121955995Y-126755385D01*
X121794614Y-126594004D01*
X121609966Y-126459849D01*
X121406604Y-126356230D01*
X121189544Y-126285704D01*
X120964116Y-126250000D01*
X120450000Y-126250000D01*
X120450000Y-127099998D01*
X120389598Y-127074979D01*
X120264019Y-127050000D01*
X120135981Y-127050000D01*
X120010402Y-127074979D01*
X119950000Y-127099998D01*
X119950000Y-126250000D01*
X119435884Y-126250000D01*
X119210455Y-126285704D01*
X118993395Y-126356230D01*
X118790033Y-126459849D01*
X118605385Y-126594004D01*
X118444004Y-126755385D01*
X118309849Y-126940033D01*
X118206230Y-127143395D01*
X118135704Y-127360455D01*
X118121522Y-127450000D01*
X109778478Y-127450000D01*
X109764295Y-127360455D01*
X109693769Y-127143395D01*
X109590150Y-126940033D01*
X109455995Y-126755385D01*
X109294614Y-126594004D01*
X109109966Y-126459849D01*
X108906604Y-126356230D01*
X108689544Y-126285704D01*
X108464116Y-126250000D01*
X107950000Y-126250000D01*
X107950000Y-127099998D01*
X107889598Y-127074979D01*
X107764019Y-127050000D01*
X107635981Y-127050000D01*
X107510402Y-127074979D01*
X107450000Y-127099998D01*
X107450000Y-126250000D01*
X106935884Y-126250000D01*
X106710455Y-126285704D01*
X106493395Y-126356230D01*
X106290033Y-126459849D01*
X106105385Y-126594004D01*
X105944004Y-126755385D01*
X105944004Y-126755386D01*
X105901318Y-126814138D01*
X105845988Y-126856803D01*
X105776374Y-126862782D01*
X105714579Y-126830176D01*
X105680222Y-126769337D01*
X105677000Y-126741252D01*
X105677000Y-121511153D01*
X109448500Y-121511153D01*
X109448500Y-121668846D01*
X109479261Y-121823489D01*
X109479264Y-121823501D01*
X109539602Y-121969172D01*
X109539609Y-121969185D01*
X109627210Y-122100288D01*
X109627213Y-122100292D01*
X109738707Y-122211786D01*
X109738711Y-122211789D01*
X109869814Y-122299390D01*
X109869827Y-122299397D01*
X110015498Y-122359735D01*
X110015503Y-122359737D01*
X110170153Y-122390499D01*
X110170156Y-122390500D01*
X110170158Y-122390500D01*
X110327844Y-122390500D01*
X110327845Y-122390499D01*
X110482497Y-122359737D01*
X110628179Y-122299394D01*
X110662329Y-122276576D01*
X110759875Y-122211398D01*
X110826553Y-122190520D01*
X110828766Y-122190500D01*
X112120901Y-122190500D01*
X112182900Y-122207112D01*
X112303215Y-122276577D01*
X112455943Y-122317501D01*
X112455946Y-122317501D01*
X112614054Y-122317501D01*
X112614057Y-122317501D01*
X112766785Y-122276577D01*
X112903716Y-122197519D01*
X127064417Y-108036819D01*
X127125740Y-108003334D01*
X127152098Y-108000500D01*
X140113331Y-108000500D01*
X140113347Y-108000501D01*
X140120943Y-108000501D01*
X140279054Y-108000501D01*
X140279057Y-108000501D01*
X140431785Y-107959577D01*
X140481904Y-107930639D01*
X140568716Y-107880520D01*
X140680520Y-107768716D01*
X140680520Y-107768714D01*
X140690728Y-107758507D01*
X140690730Y-107758504D01*
X153670713Y-94778521D01*
X153670716Y-94778520D01*
X153782520Y-94666716D01*
X153844104Y-94560048D01*
X153861577Y-94529785D01*
X153902500Y-94377057D01*
X153902500Y-94218943D01*
X153902500Y-81322135D01*
X157539500Y-81322135D01*
X157539500Y-83117870D01*
X157539501Y-83117876D01*
X157545908Y-83177483D01*
X157596202Y-83312328D01*
X157596206Y-83312335D01*
X157682452Y-83427544D01*
X157682455Y-83427547D01*
X157797664Y-83513793D01*
X157797671Y-83513797D01*
X157929082Y-83562810D01*
X157985016Y-83604681D01*
X158009433Y-83670145D01*
X157994582Y-83738418D01*
X157973431Y-83766673D01*
X157859889Y-83880215D01*
X157734951Y-84052179D01*
X157638444Y-84241585D01*
X157572753Y-84443760D01*
X157539500Y-84653713D01*
X157539500Y-84866286D01*
X157572753Y-85076239D01*
X157638444Y-85278414D01*
X157734951Y-85467820D01*
X157859890Y-85639786D01*
X158010213Y-85790109D01*
X158182182Y-85915050D01*
X158190946Y-85919516D01*
X158241742Y-85967491D01*
X158258536Y-86035312D01*
X158235998Y-86101447D01*
X158190946Y-86140484D01*
X158182182Y-86144949D01*
X158010213Y-86269890D01*
X157859890Y-86420213D01*
X157734951Y-86592179D01*
X157638444Y-86781585D01*
X157572753Y-86983760D01*
X157539500Y-87193713D01*
X157539500Y-87406286D01*
X157572753Y-87616239D01*
X157638444Y-87818414D01*
X157734951Y-88007820D01*
X157859890Y-88179786D01*
X158010213Y-88330109D01*
X158182182Y-88455050D01*
X158190946Y-88459516D01*
X158241742Y-88507491D01*
X158258536Y-88575312D01*
X158235998Y-88641447D01*
X158190946Y-88680484D01*
X158182182Y-88684949D01*
X158010213Y-88809890D01*
X157859890Y-88960213D01*
X157734951Y-89132179D01*
X157638444Y-89321585D01*
X157572753Y-89523760D01*
X157544873Y-89699789D01*
X157539500Y-89733713D01*
X157539500Y-89946287D01*
X157540046Y-89949732D01*
X157572753Y-90156239D01*
X157638444Y-90358414D01*
X157734951Y-90547820D01*
X157859890Y-90719786D01*
X158010213Y-90870109D01*
X158182182Y-90995050D01*
X158190946Y-90999516D01*
X158241742Y-91047491D01*
X158258536Y-91115312D01*
X158235998Y-91181447D01*
X158190946Y-91220484D01*
X158182182Y-91224949D01*
X158010213Y-91349890D01*
X157859890Y-91500213D01*
X157734951Y-91672179D01*
X157638444Y-91861585D01*
X157572753Y-92063760D01*
X157539500Y-92273713D01*
X157539500Y-92486286D01*
X157572753Y-92696239D01*
X157638444Y-92898414D01*
X157734951Y-93087820D01*
X157859890Y-93259786D01*
X158010213Y-93410109D01*
X158182179Y-93535048D01*
X158182181Y-93535049D01*
X158182184Y-93535051D01*
X158191493Y-93539794D01*
X158242290Y-93587766D01*
X158259087Y-93655587D01*
X158236552Y-93721722D01*
X158191505Y-93760760D01*
X158182446Y-93765376D01*
X158182440Y-93765380D01*
X158128282Y-93804727D01*
X158128282Y-93804728D01*
X158760591Y-94437037D01*
X158697007Y-94454075D01*
X158582993Y-94519901D01*
X158489901Y-94612993D01*
X158424075Y-94727007D01*
X158407037Y-94790591D01*
X157774728Y-94158282D01*
X157774727Y-94158282D01*
X157735380Y-94212439D01*
X157638904Y-94401782D01*
X157573242Y-94603869D01*
X157573242Y-94603872D01*
X157540000Y-94813753D01*
X157540000Y-95026246D01*
X157573242Y-95236127D01*
X157573242Y-95236130D01*
X157638904Y-95438217D01*
X157735375Y-95627550D01*
X157774728Y-95681716D01*
X158407037Y-95049408D01*
X158424075Y-95112993D01*
X158489901Y-95227007D01*
X158582993Y-95320099D01*
X158697007Y-95385925D01*
X158760590Y-95402962D01*
X158128282Y-96035269D01*
X158128282Y-96035270D01*
X158182452Y-96074626D01*
X158182451Y-96074626D01*
X158191495Y-96079234D01*
X158242292Y-96127208D01*
X158259087Y-96195029D01*
X158236550Y-96261164D01*
X158191499Y-96300202D01*
X158182182Y-96304949D01*
X158010213Y-96429890D01*
X157859890Y-96580213D01*
X157734951Y-96752179D01*
X157638444Y-96941585D01*
X157572753Y-97143760D01*
X157539500Y-97353713D01*
X157539500Y-97566286D01*
X157572753Y-97776239D01*
X157638444Y-97978414D01*
X157734951Y-98167820D01*
X157859890Y-98339786D01*
X158010213Y-98490109D01*
X158182179Y-98615048D01*
X158182181Y-98615049D01*
X158182184Y-98615051D01*
X158371588Y-98711557D01*
X158573757Y-98777246D01*
X158783713Y-98810500D01*
X158783714Y-98810500D01*
X158996286Y-98810500D01*
X158996287Y-98810500D01*
X159206243Y-98777246D01*
X159408412Y-98711557D01*
X159597816Y-98615051D01*
X159619789Y-98599086D01*
X159769786Y-98490109D01*
X159769788Y-98490106D01*
X159769792Y-98490104D01*
X159920104Y-98339792D01*
X159920106Y-98339788D01*
X159920109Y-98339786D01*
X160045048Y-98167820D01*
X160045047Y-98167820D01*
X160045051Y-98167816D01*
X160141557Y-97978412D01*
X160207246Y-97776243D01*
X160240500Y-97566287D01*
X160240500Y-97353713D01*
X160207246Y-97143757D01*
X160141557Y-96941588D01*
X160045051Y-96752184D01*
X160045049Y-96752181D01*
X160045048Y-96752179D01*
X159920109Y-96580213D01*
X159769786Y-96429890D01*
X159597817Y-96304949D01*
X159588504Y-96300204D01*
X159537707Y-96252230D01*
X159520912Y-96184409D01*
X159543449Y-96118274D01*
X159588507Y-96079232D01*
X159597555Y-96074622D01*
X159651716Y-96035270D01*
X159651717Y-96035270D01*
X159019408Y-95402962D01*
X159082993Y-95385925D01*
X159197007Y-95320099D01*
X159290099Y-95227007D01*
X159355925Y-95112993D01*
X159372962Y-95049408D01*
X160005270Y-95681717D01*
X160005270Y-95681716D01*
X160044622Y-95627554D01*
X160141095Y-95438217D01*
X160206757Y-95236130D01*
X160206757Y-95236127D01*
X160240000Y-95026246D01*
X160240000Y-94813753D01*
X160206757Y-94603872D01*
X160206757Y-94603869D01*
X160141095Y-94401782D01*
X160044624Y-94212449D01*
X160005270Y-94158282D01*
X160005269Y-94158282D01*
X159372962Y-94790590D01*
X159355925Y-94727007D01*
X159290099Y-94612993D01*
X159197007Y-94519901D01*
X159082993Y-94454075D01*
X159019409Y-94437037D01*
X159651716Y-93804728D01*
X159597547Y-93765373D01*
X159597547Y-93765372D01*
X159588500Y-93760763D01*
X159537706Y-93712788D01*
X159520912Y-93644966D01*
X159543451Y-93578832D01*
X159588508Y-93539793D01*
X159597816Y-93535051D01*
X159677007Y-93477515D01*
X159769786Y-93410109D01*
X159769788Y-93410106D01*
X159769792Y-93410104D01*
X159920104Y-93259792D01*
X159920106Y-93259788D01*
X159920109Y-93259786D01*
X160045048Y-93087820D01*
X160045047Y-93087820D01*
X160045051Y-93087816D01*
X160141557Y-92898412D01*
X160207246Y-92696243D01*
X160240500Y-92486287D01*
X160240500Y-92273713D01*
X160207246Y-92063757D01*
X160141557Y-91861588D01*
X160045051Y-91672184D01*
X160045049Y-91672181D01*
X160045048Y-91672179D01*
X159920109Y-91500213D01*
X159769786Y-91349890D01*
X159597820Y-91224951D01*
X159597115Y-91224591D01*
X159589054Y-91220485D01*
X159538259Y-91172512D01*
X159521463Y-91104692D01*
X159543999Y-91038556D01*
X159589054Y-90999515D01*
X159597816Y-90995051D01*
X159619789Y-90979086D01*
X159769786Y-90870109D01*
X159769788Y-90870106D01*
X159769792Y-90870104D01*
X159920104Y-90719792D01*
X159920106Y-90719788D01*
X159920109Y-90719786D01*
X160045048Y-90547820D01*
X160045047Y-90547820D01*
X160045051Y-90547816D01*
X160141557Y-90358412D01*
X160207246Y-90156243D01*
X160240500Y-89946287D01*
X160240500Y-89733713D01*
X160207246Y-89523757D01*
X160141557Y-89321588D01*
X160045051Y-89132184D01*
X160045049Y-89132181D01*
X160045048Y-89132179D01*
X159920109Y-88960213D01*
X159769786Y-88809890D01*
X159597820Y-88684951D01*
X159597115Y-88684591D01*
X159589054Y-88680485D01*
X159538259Y-88632512D01*
X159521463Y-88564692D01*
X159543999Y-88498556D01*
X159589054Y-88459515D01*
X159597816Y-88455051D01*
X159652572Y-88415269D01*
X159769786Y-88330109D01*
X159769788Y-88330106D01*
X159769792Y-88330104D01*
X159920104Y-88179792D01*
X159920106Y-88179788D01*
X159920109Y-88179786D01*
X160045048Y-88007820D01*
X160045047Y-88007820D01*
X160045051Y-88007816D01*
X160141557Y-87818412D01*
X160207246Y-87616243D01*
X160240500Y-87406287D01*
X160240500Y-87193713D01*
X160207246Y-86983757D01*
X160141557Y-86781588D01*
X160045051Y-86592184D01*
X160045049Y-86592181D01*
X160045048Y-86592179D01*
X159920109Y-86420213D01*
X159769786Y-86269890D01*
X159597820Y-86144951D01*
X159597115Y-86144591D01*
X159589054Y-86140485D01*
X159538259Y-86092512D01*
X159521463Y-86024692D01*
X159543999Y-85958556D01*
X159589054Y-85919515D01*
X159597816Y-85915051D01*
X159684138Y-85852335D01*
X159769786Y-85790109D01*
X159769788Y-85790106D01*
X159769792Y-85790104D01*
X159920104Y-85639792D01*
X159920106Y-85639788D01*
X159920109Y-85639786D01*
X160045048Y-85467820D01*
X160045047Y-85467820D01*
X160045051Y-85467816D01*
X160141557Y-85278412D01*
X160207246Y-85076243D01*
X160240500Y-84866287D01*
X160240500Y-84653713D01*
X160207246Y-84443757D01*
X160141557Y-84241588D01*
X160045051Y-84052184D01*
X160034369Y-84037482D01*
X159961518Y-83937209D01*
X159961514Y-83937205D01*
X159920104Y-83880208D01*
X159804489Y-83764593D01*
X159802525Y-83762434D01*
X159788474Y-83733535D01*
X159773084Y-83705350D01*
X159773300Y-83702325D01*
X159771974Y-83699598D01*
X159775776Y-83667703D01*
X159778068Y-83635658D01*
X159779886Y-83633229D01*
X159780245Y-83630219D01*
X159800688Y-83605441D01*
X159819940Y-83579725D01*
X159823519Y-83577770D01*
X159824711Y-83576326D01*
X159828223Y-83575201D01*
X159850915Y-83562810D01*
X159982331Y-83513796D01*
X160097546Y-83427546D01*
X160183796Y-83312331D01*
X160234091Y-83177483D01*
X160240500Y-83117873D01*
X160240499Y-81322128D01*
X160234091Y-81262517D01*
X160183796Y-81127669D01*
X160183795Y-81127668D01*
X160183793Y-81127664D01*
X160097547Y-81012455D01*
X160097544Y-81012452D01*
X159982335Y-80926206D01*
X159982328Y-80926202D01*
X159847482Y-80875908D01*
X159847483Y-80875908D01*
X159787883Y-80869501D01*
X159787881Y-80869500D01*
X159787873Y-80869500D01*
X159787864Y-80869500D01*
X157992129Y-80869500D01*
X157992123Y-80869501D01*
X157932516Y-80875908D01*
X157797671Y-80926202D01*
X157797664Y-80926206D01*
X157682455Y-81012452D01*
X157682452Y-81012455D01*
X157596206Y-81127664D01*
X157596202Y-81127671D01*
X157545908Y-81262517D01*
X157539501Y-81322116D01*
X157539501Y-81322123D01*
X157539500Y-81322135D01*
X153902500Y-81322135D01*
X153902500Y-77910960D01*
X153922185Y-77843921D01*
X153974989Y-77798166D01*
X154044147Y-77788222D01*
X154064803Y-77793025D01*
X154203703Y-77838156D01*
X154235465Y-77848477D01*
X154295458Y-77857979D01*
X154437648Y-77880500D01*
X154437649Y-77880500D01*
X154642351Y-77880500D01*
X154642352Y-77880500D01*
X154844534Y-77848477D01*
X155039219Y-77785220D01*
X155221610Y-77692287D01*
X155314590Y-77624732D01*
X155387213Y-77571971D01*
X155387215Y-77571968D01*
X155387219Y-77571966D01*
X155531966Y-77427219D01*
X155531968Y-77427215D01*
X155531971Y-77427213D01*
X155652284Y-77261614D01*
X155652286Y-77261611D01*
X155652287Y-77261610D01*
X155699516Y-77168917D01*
X155747489Y-77118123D01*
X155815310Y-77101328D01*
X155881445Y-77123865D01*
X155920483Y-77168917D01*
X155956453Y-77239511D01*
X155967715Y-77261614D01*
X156088028Y-77427213D01*
X156232786Y-77571971D01*
X156357343Y-77662465D01*
X156398390Y-77692287D01*
X156505943Y-77747088D01*
X156580776Y-77785218D01*
X156580778Y-77785218D01*
X156580781Y-77785220D01*
X156648081Y-77807087D01*
X156775465Y-77848477D01*
X156835458Y-77857979D01*
X156977648Y-77880500D01*
X156977649Y-77880500D01*
X157182351Y-77880500D01*
X157182352Y-77880500D01*
X157384534Y-77848477D01*
X157579219Y-77785220D01*
X157761610Y-77692287D01*
X157854590Y-77624732D01*
X157927213Y-77571971D01*
X157927215Y-77571968D01*
X157927219Y-77571966D01*
X158071966Y-77427219D01*
X158071968Y-77427215D01*
X158071971Y-77427213D01*
X158192284Y-77261614D01*
X158192286Y-77261611D01*
X158192287Y-77261610D01*
X158239516Y-77168917D01*
X158287489Y-77118123D01*
X158355310Y-77101328D01*
X158421445Y-77123865D01*
X158460483Y-77168917D01*
X158496453Y-77239511D01*
X158507715Y-77261614D01*
X158628028Y-77427213D01*
X158772786Y-77571971D01*
X158897343Y-77662465D01*
X158938390Y-77692287D01*
X159045943Y-77747088D01*
X159120776Y-77785218D01*
X159120778Y-77785218D01*
X159120781Y-77785220D01*
X159188081Y-77807087D01*
X159315465Y-77848477D01*
X159375458Y-77857979D01*
X159517648Y-77880500D01*
X159517649Y-77880500D01*
X159722351Y-77880500D01*
X159722352Y-77880500D01*
X159924534Y-77848477D01*
X160119219Y-77785220D01*
X160301610Y-77692287D01*
X160394590Y-77624732D01*
X160467213Y-77571971D01*
X160467215Y-77571968D01*
X160467219Y-77571966D01*
X160611966Y-77427219D01*
X160611968Y-77427215D01*
X160611971Y-77427213D01*
X160732286Y-77261611D01*
X160732287Y-77261610D01*
X160776058Y-77175703D01*
X160824030Y-77124909D01*
X160891851Y-77108113D01*
X160957986Y-77130650D01*
X160995900Y-77173545D01*
X161031158Y-77239506D01*
X161077533Y-77308912D01*
X161077534Y-77308913D01*
X161677037Y-76709409D01*
X161694075Y-76772993D01*
X161759901Y-76887007D01*
X161852993Y-76980099D01*
X161967007Y-77045925D01*
X162030590Y-77062962D01*
X161431085Y-77662465D01*
X161500493Y-77708841D01*
X161587801Y-77755509D01*
X161733387Y-77815814D01*
X161828135Y-77844555D01*
X161982699Y-77875298D01*
X162081210Y-77885000D01*
X162238790Y-77885000D01*
X162337299Y-77875298D01*
X162337302Y-77875298D01*
X162491864Y-77844555D01*
X162586612Y-77815814D01*
X162732198Y-77755509D01*
X162819501Y-77708844D01*
X162819511Y-77708838D01*
X162888912Y-77662465D01*
X162289409Y-77062962D01*
X162352993Y-77045925D01*
X162467007Y-76980099D01*
X162560099Y-76887007D01*
X162625925Y-76772993D01*
X162642962Y-76709409D01*
X163242465Y-77308912D01*
X163288838Y-77239511D01*
X163288849Y-77239493D01*
X163324099Y-77173546D01*
X163373061Y-77123702D01*
X163441199Y-77108241D01*
X163506879Y-77132073D01*
X163543941Y-77175702D01*
X163576444Y-77239493D01*
X163587715Y-77261614D01*
X163708028Y-77427213D01*
X163852786Y-77571971D01*
X163977343Y-77662465D01*
X164018390Y-77692287D01*
X164125943Y-77747088D01*
X164200776Y-77785218D01*
X164200778Y-77785218D01*
X164200781Y-77785220D01*
X164268081Y-77807087D01*
X164395465Y-77848477D01*
X164455458Y-77857979D01*
X164597648Y-77880500D01*
X164597649Y-77880500D01*
X164802351Y-77880500D01*
X164802352Y-77880500D01*
X165004534Y-77848477D01*
X165199219Y-77785220D01*
X165381610Y-77692287D01*
X165474590Y-77624732D01*
X165547213Y-77571971D01*
X165547215Y-77571968D01*
X165547219Y-77571966D01*
X165691966Y-77427219D01*
X165691968Y-77427215D01*
X165691971Y-77427213D01*
X165812284Y-77261614D01*
X165812286Y-77261611D01*
X165812287Y-77261610D01*
X165859516Y-77168917D01*
X165907489Y-77118123D01*
X165975310Y-77101328D01*
X166041445Y-77123865D01*
X166080483Y-77168917D01*
X166116453Y-77239511D01*
X166127715Y-77261614D01*
X166248028Y-77427213D01*
X166392786Y-77571971D01*
X166517343Y-77662465D01*
X166558390Y-77692287D01*
X166665943Y-77747088D01*
X166740776Y-77785218D01*
X166740778Y-77785218D01*
X166740781Y-77785220D01*
X166808081Y-77807087D01*
X166935465Y-77848477D01*
X166995458Y-77857979D01*
X167137648Y-77880500D01*
X167137649Y-77880500D01*
X167342351Y-77880500D01*
X167342352Y-77880500D01*
X167544534Y-77848477D01*
X167739219Y-77785220D01*
X167921610Y-77692287D01*
X168014590Y-77624732D01*
X168087213Y-77571971D01*
X168087215Y-77571968D01*
X168087219Y-77571966D01*
X168231966Y-77427219D01*
X168231968Y-77427215D01*
X168231971Y-77427213D01*
X168352284Y-77261614D01*
X168352286Y-77261611D01*
X168352287Y-77261610D01*
X168399516Y-77168917D01*
X168447489Y-77118123D01*
X168515310Y-77101328D01*
X168581445Y-77123865D01*
X168620483Y-77168917D01*
X168656453Y-77239511D01*
X168667715Y-77261614D01*
X168788028Y-77427213D01*
X168788034Y-77427219D01*
X168932781Y-77571966D01*
X169098390Y-77692287D01*
X169111793Y-77699116D01*
X169162589Y-77747088D01*
X169179500Y-77809601D01*
X169179500Y-85009902D01*
X169159815Y-85076941D01*
X169143181Y-85097583D01*
X166811681Y-87429083D01*
X166750358Y-87462568D01*
X166680666Y-87457584D01*
X166624733Y-87415712D01*
X166600316Y-87350248D01*
X166600000Y-87341402D01*
X166600000Y-87193753D01*
X166566757Y-86983872D01*
X166566757Y-86983869D01*
X166501095Y-86781782D01*
X166404624Y-86592449D01*
X166365270Y-86538282D01*
X166365269Y-86538282D01*
X165732962Y-87170590D01*
X165715925Y-87107007D01*
X165650099Y-86992993D01*
X165557007Y-86899901D01*
X165442993Y-86834075D01*
X165379409Y-86817037D01*
X166049627Y-86146818D01*
X166110950Y-86113333D01*
X166137307Y-86110499D01*
X166147872Y-86110499D01*
X166207483Y-86104091D01*
X166342331Y-86053796D01*
X166457546Y-85967546D01*
X166543796Y-85852331D01*
X166594091Y-85717483D01*
X166600500Y-85657873D01*
X166600499Y-83862128D01*
X166594091Y-83802517D01*
X166568362Y-83733535D01*
X166543797Y-83667671D01*
X166543793Y-83667664D01*
X166457547Y-83552455D01*
X166457544Y-83552452D01*
X166342335Y-83466206D01*
X166342328Y-83466202D01*
X166207482Y-83415908D01*
X166207483Y-83415908D01*
X166147883Y-83409501D01*
X166147881Y-83409500D01*
X166147873Y-83409500D01*
X166147864Y-83409500D01*
X164352129Y-83409500D01*
X164352123Y-83409501D01*
X164292516Y-83415908D01*
X164157671Y-83466202D01*
X164157664Y-83466206D01*
X164042455Y-83552452D01*
X164042452Y-83552455D01*
X163956206Y-83667664D01*
X163956202Y-83667671D01*
X163905908Y-83802517D01*
X163899501Y-83862116D01*
X163899501Y-83862123D01*
X163899500Y-83862135D01*
X163899500Y-85657870D01*
X163899501Y-85657876D01*
X163905908Y-85717483D01*
X163956202Y-85852328D01*
X163956206Y-85852335D01*
X164042452Y-85967544D01*
X164042455Y-85967547D01*
X164157664Y-86053793D01*
X164157671Y-86053797D01*
X164202618Y-86070561D01*
X164292517Y-86104091D01*
X164352127Y-86110500D01*
X164362685Y-86110499D01*
X164429723Y-86130179D01*
X164450372Y-86146818D01*
X165120591Y-86817037D01*
X165057007Y-86834075D01*
X164942993Y-86899901D01*
X164849901Y-86992993D01*
X164784075Y-87107007D01*
X164767037Y-87170591D01*
X164134728Y-86538282D01*
X164134727Y-86538282D01*
X164095380Y-86592439D01*
X163998904Y-86781782D01*
X163933242Y-86983869D01*
X163933242Y-86983872D01*
X163900000Y-87193753D01*
X163900000Y-87406246D01*
X163933242Y-87616127D01*
X163933242Y-87616130D01*
X163998904Y-87818217D01*
X164095375Y-88007550D01*
X164134728Y-88061716D01*
X164767036Y-87429407D01*
X164784075Y-87492993D01*
X164849901Y-87607007D01*
X164942993Y-87700099D01*
X165057007Y-87765925D01*
X165120590Y-87782962D01*
X164488282Y-88415269D01*
X164488282Y-88415270D01*
X164542452Y-88454626D01*
X164542451Y-88454626D01*
X164551495Y-88459234D01*
X164602292Y-88507208D01*
X164619087Y-88575029D01*
X164596550Y-88641164D01*
X164551499Y-88680202D01*
X164542182Y-88684949D01*
X164370213Y-88809890D01*
X164219890Y-88960213D01*
X164094951Y-89132179D01*
X163998444Y-89321585D01*
X163932753Y-89523760D01*
X163904873Y-89699789D01*
X163899500Y-89733713D01*
X163899500Y-89946287D01*
X163900046Y-89949732D01*
X163932753Y-90156239D01*
X163998444Y-90358414D01*
X164094951Y-90547820D01*
X164219890Y-90719786D01*
X164370213Y-90870109D01*
X164542182Y-90995050D01*
X164550946Y-90999516D01*
X164601742Y-91047491D01*
X164618536Y-91115312D01*
X164595998Y-91181447D01*
X164550946Y-91220484D01*
X164542182Y-91224949D01*
X164370213Y-91349890D01*
X164219890Y-91500213D01*
X164094951Y-91672179D01*
X163998444Y-91861585D01*
X163932753Y-92063760D01*
X163899500Y-92273713D01*
X163899500Y-92486286D01*
X163932753Y-92696239D01*
X163998444Y-92898414D01*
X164094951Y-93087820D01*
X164219890Y-93259786D01*
X164370213Y-93410109D01*
X164542179Y-93535048D01*
X164542181Y-93535049D01*
X164542184Y-93535051D01*
X164731588Y-93631557D01*
X164933757Y-93697246D01*
X165143713Y-93730500D01*
X165143714Y-93730500D01*
X165356286Y-93730500D01*
X165356287Y-93730500D01*
X165566243Y-93697246D01*
X165768412Y-93631557D01*
X165957816Y-93535051D01*
X165979789Y-93519086D01*
X166129786Y-93410109D01*
X166129788Y-93410106D01*
X166129792Y-93410104D01*
X166280104Y-93259792D01*
X166280106Y-93259788D01*
X166280109Y-93259786D01*
X166405048Y-93087820D01*
X166405047Y-93087820D01*
X166405051Y-93087816D01*
X166501557Y-92898412D01*
X166567246Y-92696243D01*
X166600500Y-92486287D01*
X166600500Y-92273713D01*
X166567246Y-92063757D01*
X166501557Y-91861588D01*
X166405051Y-91672184D01*
X166405049Y-91672181D01*
X166405048Y-91672179D01*
X166280109Y-91500213D01*
X166129786Y-91349890D01*
X165957820Y-91224951D01*
X165957115Y-91224591D01*
X165949054Y-91220485D01*
X165898259Y-91172512D01*
X165881463Y-91104692D01*
X165903999Y-91038556D01*
X165949054Y-90999515D01*
X165957816Y-90995051D01*
X165979789Y-90979086D01*
X166129786Y-90870109D01*
X166129788Y-90870106D01*
X166129792Y-90870104D01*
X166280104Y-90719792D01*
X166280106Y-90719788D01*
X166280109Y-90719786D01*
X166405048Y-90547820D01*
X166405047Y-90547820D01*
X166405051Y-90547816D01*
X166501557Y-90358412D01*
X166567246Y-90156243D01*
X166600500Y-89946287D01*
X166600500Y-89733713D01*
X166567246Y-89523757D01*
X166553506Y-89481473D01*
X166551512Y-89411635D01*
X166583755Y-89355478D01*
X170138506Y-85800728D01*
X170138511Y-85800724D01*
X170148714Y-85790520D01*
X170148716Y-85790520D01*
X170260520Y-85678716D01*
X170293377Y-85621804D01*
X170343943Y-85573590D01*
X170412550Y-85560366D01*
X170477415Y-85586334D01*
X170517944Y-85643247D01*
X170524764Y-85683805D01*
X170524764Y-94028167D01*
X170505079Y-94095206D01*
X170488445Y-94115848D01*
X143651113Y-120953181D01*
X143589790Y-120986666D01*
X143563432Y-120989500D01*
X128735766Y-120989500D01*
X128668727Y-120969815D01*
X128666875Y-120968602D01*
X128535185Y-120880609D01*
X128535172Y-120880602D01*
X128389501Y-120820264D01*
X128389489Y-120820261D01*
X128234845Y-120789500D01*
X128234842Y-120789500D01*
X128077158Y-120789500D01*
X128077155Y-120789500D01*
X127922510Y-120820261D01*
X127922498Y-120820264D01*
X127776827Y-120880602D01*
X127776814Y-120880609D01*
X127645711Y-120968210D01*
X127645707Y-120968213D01*
X127534213Y-121079707D01*
X127534210Y-121079711D01*
X127446609Y-121210814D01*
X127446602Y-121210827D01*
X127386264Y-121356498D01*
X127386261Y-121356510D01*
X127355500Y-121511153D01*
X127355500Y-121668846D01*
X127386261Y-121823489D01*
X127386264Y-121823501D01*
X127446602Y-121969172D01*
X127446609Y-121969185D01*
X127534210Y-122100288D01*
X127534213Y-122100292D01*
X127645707Y-122211786D01*
X127645711Y-122211789D01*
X127776814Y-122299390D01*
X127776827Y-122299397D01*
X127922498Y-122359735D01*
X127922503Y-122359737D01*
X128077153Y-122390499D01*
X128077156Y-122390500D01*
X128077158Y-122390500D01*
X128234844Y-122390500D01*
X128234845Y-122390499D01*
X128389497Y-122359737D01*
X128535179Y-122299394D01*
X128569329Y-122276576D01*
X128666875Y-122211398D01*
X128733553Y-122190520D01*
X128735766Y-122190500D01*
X143776860Y-122190500D01*
X143776876Y-122190501D01*
X143784472Y-122190501D01*
X143942583Y-122190501D01*
X143942586Y-122190501D01*
X144095314Y-122149577D01*
X144145433Y-122120639D01*
X144232245Y-122070520D01*
X144344049Y-121958716D01*
X144344049Y-121958714D01*
X144354257Y-121948507D01*
X144354259Y-121948503D01*
X171493977Y-94808785D01*
X171493980Y-94808784D01*
X171605784Y-94696980D01*
X171655903Y-94610168D01*
X171684841Y-94560049D01*
X171725764Y-94407321D01*
X171725764Y-94249207D01*
X171725764Y-77925018D01*
X171745449Y-77857979D01*
X171798253Y-77812224D01*
X171867411Y-77802280D01*
X171888074Y-77807085D01*
X171957024Y-77829488D01*
X172015465Y-77848477D01*
X172075458Y-77857979D01*
X172217648Y-77880500D01*
X172217649Y-77880500D01*
X172422351Y-77880500D01*
X172422352Y-77880500D01*
X172624534Y-77848477D01*
X172819219Y-77785220D01*
X173001610Y-77692287D01*
X173094590Y-77624732D01*
X173167213Y-77571971D01*
X173167215Y-77571968D01*
X173167219Y-77571966D01*
X173311966Y-77427219D01*
X173311968Y-77427215D01*
X173311971Y-77427213D01*
X173432286Y-77261611D01*
X173432287Y-77261610D01*
X173476058Y-77175703D01*
X173524030Y-77124909D01*
X173591851Y-77108113D01*
X173657986Y-77130650D01*
X173695900Y-77173545D01*
X173731158Y-77239506D01*
X173777533Y-77308912D01*
X173777533Y-77308913D01*
X174377037Y-76709409D01*
X174394075Y-76772993D01*
X174459901Y-76887007D01*
X174552993Y-76980099D01*
X174667007Y-77045925D01*
X174730590Y-77062962D01*
X174131085Y-77662465D01*
X174200493Y-77708841D01*
X174287801Y-77755509D01*
X174433387Y-77815814D01*
X174528135Y-77844555D01*
X174682699Y-77875298D01*
X174781210Y-77885000D01*
X174938790Y-77885000D01*
X175037299Y-77875298D01*
X175037302Y-77875298D01*
X175191864Y-77844555D01*
X175286612Y-77815814D01*
X175432198Y-77755509D01*
X175519501Y-77708844D01*
X175519511Y-77708838D01*
X175588912Y-77662465D01*
X174989409Y-77062962D01*
X175052993Y-77045925D01*
X175167007Y-76980099D01*
X175260099Y-76887007D01*
X175325925Y-76772993D01*
X175342962Y-76709409D01*
X175942465Y-77308912D01*
X175988838Y-77239511D01*
X175988849Y-77239493D01*
X176024099Y-77173546D01*
X176073061Y-77123702D01*
X176141199Y-77108241D01*
X176206879Y-77132073D01*
X176243941Y-77175702D01*
X176276444Y-77239493D01*
X176287715Y-77261614D01*
X176408028Y-77427213D01*
X176552786Y-77571971D01*
X176677343Y-77662465D01*
X176718390Y-77692287D01*
X176825943Y-77747088D01*
X176900776Y-77785218D01*
X176900778Y-77785218D01*
X176900781Y-77785220D01*
X176968081Y-77807087D01*
X177095465Y-77848477D01*
X177155458Y-77857979D01*
X177297648Y-77880500D01*
X177297649Y-77880500D01*
X177502351Y-77880500D01*
X177502352Y-77880500D01*
X177704534Y-77848477D01*
X177899219Y-77785220D01*
X177921204Y-77774017D01*
X177989872Y-77761121D01*
X178054613Y-77787396D01*
X178094871Y-77844501D01*
X178101500Y-77884502D01*
X178101500Y-89158903D01*
X178081815Y-89225942D01*
X178065181Y-89246584D01*
X146429339Y-120882425D01*
X146368016Y-120915910D01*
X146365850Y-120916361D01*
X146210508Y-120947261D01*
X146210498Y-120947264D01*
X146064827Y-121007602D01*
X146064814Y-121007609D01*
X145933711Y-121095210D01*
X145933707Y-121095213D01*
X145822213Y-121206707D01*
X145822210Y-121206711D01*
X145734609Y-121337814D01*
X145734602Y-121337827D01*
X145674264Y-121483498D01*
X145674261Y-121483510D01*
X145643500Y-121638153D01*
X145643500Y-121795846D01*
X145674261Y-121950489D01*
X145674264Y-121950501D01*
X145734602Y-122096172D01*
X145734609Y-122096185D01*
X145822210Y-122227288D01*
X145822213Y-122227292D01*
X145933707Y-122338786D01*
X145933711Y-122338789D01*
X146064814Y-122426390D01*
X146064827Y-122426397D01*
X146210498Y-122486735D01*
X146210503Y-122486737D01*
X146365153Y-122517499D01*
X146365156Y-122517500D01*
X146365158Y-122517500D01*
X146522844Y-122517500D01*
X146522845Y-122517499D01*
X146677497Y-122486737D01*
X146823179Y-122426394D01*
X146954289Y-122338789D01*
X147065789Y-122227289D01*
X147153394Y-122096179D01*
X147213737Y-121950497D01*
X147239001Y-121823489D01*
X147244638Y-121795150D01*
X147277023Y-121733239D01*
X147278518Y-121731716D01*
X179060506Y-89949727D01*
X179060511Y-89949724D01*
X179070714Y-89939520D01*
X179070716Y-89939520D01*
X179182520Y-89827716D01*
X179197333Y-89802059D01*
X179260479Y-89692687D01*
X179260480Y-89692687D01*
X179260488Y-89692669D01*
X179261577Y-89690785D01*
X179302500Y-89538057D01*
X179302500Y-89379943D01*
X179302500Y-77910960D01*
X179322185Y-77843921D01*
X179374989Y-77798166D01*
X179444147Y-77788222D01*
X179464803Y-77793025D01*
X179603703Y-77838156D01*
X179635465Y-77848477D01*
X179695458Y-77857979D01*
X179837648Y-77880500D01*
X179837649Y-77880500D01*
X180042351Y-77880500D01*
X180042352Y-77880500D01*
X180244534Y-77848477D01*
X180439219Y-77785220D01*
X180461204Y-77774017D01*
X180529872Y-77761121D01*
X180594613Y-77787396D01*
X180634871Y-77844501D01*
X180641500Y-77884502D01*
X180641500Y-104652903D01*
X180621815Y-104719942D01*
X180605181Y-104740584D01*
X164463339Y-120882425D01*
X164402016Y-120915910D01*
X164399850Y-120916361D01*
X164244508Y-120947261D01*
X164244498Y-120947264D01*
X164098827Y-121007602D01*
X164098814Y-121007609D01*
X163967711Y-121095210D01*
X163967707Y-121095213D01*
X163856213Y-121206707D01*
X163856210Y-121206711D01*
X163768609Y-121337814D01*
X163768602Y-121337827D01*
X163708264Y-121483498D01*
X163708261Y-121483510D01*
X163677500Y-121638153D01*
X163677500Y-121795846D01*
X163708261Y-121950489D01*
X163708264Y-121950501D01*
X163768602Y-122096172D01*
X163768609Y-122096185D01*
X163856210Y-122227288D01*
X163856213Y-122227292D01*
X163967707Y-122338786D01*
X163967711Y-122338789D01*
X164098814Y-122426390D01*
X164098827Y-122426397D01*
X164244498Y-122486735D01*
X164244503Y-122486737D01*
X164399153Y-122517499D01*
X164399156Y-122517500D01*
X164399158Y-122517500D01*
X164556844Y-122517500D01*
X164556845Y-122517499D01*
X164711497Y-122486737D01*
X164857179Y-122426394D01*
X164988289Y-122338789D01*
X165099789Y-122227289D01*
X165187394Y-122096179D01*
X165247737Y-121950497D01*
X165273001Y-121823489D01*
X165278638Y-121795150D01*
X165311023Y-121733239D01*
X165312518Y-121731716D01*
X172518081Y-114526153D01*
X184124500Y-114526153D01*
X184124500Y-114683846D01*
X184155261Y-114838489D01*
X184155264Y-114838501D01*
X184215602Y-114984172D01*
X184215609Y-114984185D01*
X184303210Y-115115288D01*
X184303213Y-115115292D01*
X184414707Y-115226786D01*
X184414711Y-115226789D01*
X184545814Y-115314390D01*
X184545827Y-115314397D01*
X184691498Y-115374735D01*
X184691503Y-115374737D01*
X184846153Y-115405499D01*
X184846156Y-115405500D01*
X184846158Y-115405500D01*
X185003844Y-115405500D01*
X185003845Y-115405499D01*
X185158497Y-115374737D01*
X185304179Y-115314394D01*
X185435289Y-115226789D01*
X185546789Y-115115289D01*
X185634394Y-114984179D01*
X185694737Y-114838497D01*
X185714113Y-114741085D01*
X185725638Y-114683150D01*
X185758023Y-114621239D01*
X185759520Y-114619714D01*
X186563713Y-113815521D01*
X186563716Y-113815520D01*
X186675520Y-113703716D01*
X186725639Y-113616904D01*
X186754577Y-113566785D01*
X186795500Y-113414058D01*
X186795500Y-113255943D01*
X186795500Y-90013097D01*
X186804142Y-89983665D01*
X186810665Y-89953674D01*
X186814422Y-89948653D01*
X186815185Y-89946058D01*
X186831810Y-89925424D01*
X186844660Y-89912574D01*
X186905978Y-89879090D01*
X186908150Y-89878638D01*
X186966085Y-89867113D01*
X187063497Y-89847737D01*
X187197914Y-89792060D01*
X187209172Y-89787397D01*
X187209172Y-89787396D01*
X187209179Y-89787394D01*
X187340289Y-89699789D01*
X187451789Y-89588289D01*
X187539394Y-89457179D01*
X187599737Y-89311497D01*
X187630500Y-89156842D01*
X187630500Y-88999158D01*
X187630500Y-88999155D01*
X187630499Y-88999153D01*
X187599738Y-88844510D01*
X187599738Y-88844508D01*
X187599737Y-88844503D01*
X187599735Y-88844498D01*
X187539397Y-88698827D01*
X187539390Y-88698814D01*
X187451789Y-88567711D01*
X187451786Y-88567707D01*
X187340292Y-88456213D01*
X187340288Y-88456210D01*
X187209185Y-88368609D01*
X187209172Y-88368602D01*
X187063501Y-88308264D01*
X187063489Y-88308261D01*
X186908845Y-88277500D01*
X186908842Y-88277500D01*
X186751158Y-88277500D01*
X186751155Y-88277500D01*
X186596510Y-88308261D01*
X186596498Y-88308264D01*
X186450827Y-88368602D01*
X186450814Y-88368609D01*
X186319711Y-88456210D01*
X186319707Y-88456213D01*
X186208213Y-88567707D01*
X186208210Y-88567711D01*
X186120609Y-88698814D01*
X186120602Y-88698827D01*
X186060264Y-88844498D01*
X186060261Y-88844508D01*
X186029362Y-88999848D01*
X186020596Y-89016604D01*
X186016577Y-89035083D01*
X185997832Y-89060123D01*
X185996977Y-89061759D01*
X185995427Y-89063337D01*
X185826286Y-89232478D01*
X185826285Y-89232478D01*
X185826284Y-89232479D01*
X185714481Y-89344282D01*
X185714480Y-89344284D01*
X185676997Y-89409208D01*
X185664361Y-89431094D01*
X185664359Y-89431096D01*
X185635425Y-89481209D01*
X185635424Y-89481210D01*
X185635423Y-89481215D01*
X185594499Y-89633943D01*
X185594499Y-89633945D01*
X185594499Y-89802046D01*
X185594500Y-89802059D01*
X185594500Y-113034903D01*
X185574815Y-113101942D01*
X185558181Y-113122584D01*
X184910339Y-113770425D01*
X184849016Y-113803910D01*
X184846850Y-113804361D01*
X184691508Y-113835261D01*
X184691498Y-113835264D01*
X184545827Y-113895602D01*
X184545814Y-113895609D01*
X184414711Y-113983210D01*
X184414707Y-113983213D01*
X184303213Y-114094707D01*
X184303210Y-114094711D01*
X184215609Y-114225814D01*
X184215602Y-114225827D01*
X184155264Y-114371498D01*
X184155261Y-114371510D01*
X184124500Y-114526153D01*
X172518081Y-114526153D01*
X181610713Y-105433521D01*
X181610716Y-105433520D01*
X181722520Y-105321716D01*
X181772639Y-105234904D01*
X181801577Y-105184785D01*
X181842500Y-105032057D01*
X181842500Y-104873943D01*
X181842500Y-77910960D01*
X181862185Y-77843921D01*
X181914989Y-77798166D01*
X181984147Y-77788222D01*
X182004803Y-77793025D01*
X182143703Y-77838156D01*
X182175465Y-77848477D01*
X182235458Y-77857979D01*
X182377648Y-77880500D01*
X182377649Y-77880500D01*
X182582351Y-77880500D01*
X182582352Y-77880500D01*
X182784534Y-77848477D01*
X182979219Y-77785220D01*
X183161610Y-77692287D01*
X183254590Y-77624732D01*
X183327213Y-77571971D01*
X183327215Y-77571968D01*
X183327219Y-77571966D01*
X183471966Y-77427219D01*
X183471968Y-77427215D01*
X183471971Y-77427213D01*
X183592284Y-77261614D01*
X183592286Y-77261611D01*
X183592287Y-77261610D01*
X183639516Y-77168917D01*
X183687489Y-77118123D01*
X183755310Y-77101328D01*
X183821445Y-77123865D01*
X183860483Y-77168917D01*
X183896453Y-77239511D01*
X183907715Y-77261614D01*
X184028028Y-77427213D01*
X184172786Y-77571971D01*
X184297343Y-77662465D01*
X184338390Y-77692287D01*
X184445943Y-77747088D01*
X184520776Y-77785218D01*
X184520778Y-77785218D01*
X184520781Y-77785220D01*
X184588081Y-77807087D01*
X184715465Y-77848477D01*
X184775458Y-77857979D01*
X184917648Y-77880500D01*
X184917649Y-77880500D01*
X185122351Y-77880500D01*
X185122352Y-77880500D01*
X185324534Y-77848477D01*
X185519219Y-77785220D01*
X185701610Y-77692287D01*
X185794590Y-77624732D01*
X185867213Y-77571971D01*
X185867215Y-77571968D01*
X185867219Y-77571966D01*
X186011966Y-77427219D01*
X186011968Y-77427215D01*
X186011971Y-77427213D01*
X186132286Y-77261611D01*
X186132287Y-77261610D01*
X186176058Y-77175703D01*
X186224030Y-77124909D01*
X186291851Y-77108113D01*
X186357986Y-77130650D01*
X186395900Y-77173545D01*
X186431158Y-77239506D01*
X186477533Y-77308912D01*
X186477534Y-77308913D01*
X187077037Y-76709409D01*
X187094075Y-76772993D01*
X187159901Y-76887007D01*
X187252993Y-76980099D01*
X187367007Y-77045925D01*
X187430590Y-77062962D01*
X186831085Y-77662465D01*
X186900493Y-77708841D01*
X186987801Y-77755509D01*
X187133387Y-77815814D01*
X187228135Y-77844555D01*
X187382699Y-77875298D01*
X187481210Y-77885000D01*
X187638790Y-77885000D01*
X187737299Y-77875298D01*
X187737302Y-77875298D01*
X187891864Y-77844555D01*
X187986612Y-77815814D01*
X188132198Y-77755509D01*
X188219501Y-77708844D01*
X188219511Y-77708838D01*
X188288912Y-77662465D01*
X187689409Y-77062962D01*
X187752993Y-77045925D01*
X187867007Y-76980099D01*
X187960099Y-76887007D01*
X188025925Y-76772993D01*
X188042962Y-76709409D01*
X188642465Y-77308912D01*
X188688838Y-77239511D01*
X188688849Y-77239493D01*
X188724099Y-77173546D01*
X188773061Y-77123702D01*
X188841199Y-77108241D01*
X188906879Y-77132073D01*
X188943941Y-77175702D01*
X188976444Y-77239493D01*
X188987715Y-77261614D01*
X189108028Y-77427213D01*
X189252786Y-77571971D01*
X189377343Y-77662465D01*
X189418390Y-77692287D01*
X189525943Y-77747088D01*
X189600776Y-77785218D01*
X189600778Y-77785218D01*
X189600781Y-77785220D01*
X189668081Y-77807087D01*
X189795465Y-77848477D01*
X189855458Y-77857979D01*
X189997648Y-77880500D01*
X189997649Y-77880500D01*
X190202351Y-77880500D01*
X190202352Y-77880500D01*
X190404534Y-77848477D01*
X190599219Y-77785220D01*
X190748207Y-77709306D01*
X190816874Y-77696411D01*
X190881614Y-77722687D01*
X190921872Y-77779793D01*
X190928500Y-77819792D01*
X190928500Y-112526902D01*
X190908815Y-112593941D01*
X190892181Y-112614583D01*
X182624339Y-120882425D01*
X182563016Y-120915910D01*
X182560850Y-120916361D01*
X182405508Y-120947261D01*
X182405498Y-120947264D01*
X182259827Y-121007602D01*
X182259814Y-121007609D01*
X182128711Y-121095210D01*
X182128707Y-121095213D01*
X182017213Y-121206707D01*
X182017210Y-121206711D01*
X181929609Y-121337814D01*
X181929602Y-121337827D01*
X181869264Y-121483498D01*
X181869261Y-121483510D01*
X181838500Y-121638153D01*
X181838500Y-121795846D01*
X181869261Y-121950489D01*
X181869264Y-121950501D01*
X181929602Y-122096172D01*
X181929609Y-122096185D01*
X182017210Y-122227288D01*
X182017213Y-122227292D01*
X182128707Y-122338786D01*
X182128711Y-122338789D01*
X182259814Y-122426390D01*
X182259827Y-122426397D01*
X182405498Y-122486735D01*
X182405503Y-122486737D01*
X182560153Y-122517499D01*
X182560156Y-122517500D01*
X182560158Y-122517500D01*
X182717844Y-122517500D01*
X182717845Y-122517499D01*
X182872497Y-122486737D01*
X183018179Y-122426394D01*
X183149289Y-122338789D01*
X183260789Y-122227289D01*
X183348394Y-122096179D01*
X183408737Y-121950497D01*
X183434001Y-121823489D01*
X183439638Y-121795150D01*
X183472023Y-121733239D01*
X183473518Y-121731716D01*
X192009520Y-113195716D01*
X192088577Y-113058784D01*
X192129501Y-112906057D01*
X192129501Y-112747942D01*
X192129501Y-112740347D01*
X192129500Y-112740329D01*
X192129500Y-77952226D01*
X192149185Y-77885187D01*
X192201989Y-77839432D01*
X192271147Y-77829488D01*
X192291816Y-77834294D01*
X192307628Y-77839432D01*
X192335465Y-77848477D01*
X192395458Y-77857979D01*
X192537648Y-77880500D01*
X192537649Y-77880500D01*
X192742351Y-77880500D01*
X192742352Y-77880500D01*
X192944534Y-77848477D01*
X193139219Y-77785220D01*
X193321610Y-77692287D01*
X193414590Y-77624732D01*
X193487213Y-77571971D01*
X193487215Y-77571968D01*
X193487219Y-77571966D01*
X193631966Y-77427219D01*
X193631968Y-77427215D01*
X193631971Y-77427213D01*
X193684732Y-77354590D01*
X193752287Y-77261610D01*
X193845220Y-77079219D01*
X193908477Y-76884534D01*
X193940500Y-76682352D01*
X193940500Y-76477648D01*
X193908477Y-76275466D01*
X193907673Y-76272993D01*
X193845218Y-76080776D01*
X193799515Y-75991080D01*
X193752287Y-75898390D01*
X193712948Y-75844244D01*
X193631971Y-75732786D01*
X193487213Y-75588028D01*
X193321613Y-75467715D01*
X193321612Y-75467714D01*
X193321610Y-75467713D01*
X193209000Y-75410335D01*
X193139223Y-75374781D01*
X192944534Y-75311522D01*
X192769995Y-75283878D01*
X192742352Y-75279500D01*
X192537648Y-75279500D01*
X192470254Y-75290174D01*
X192335464Y-75311523D01*
X192335457Y-75311524D01*
X192291817Y-75325704D01*
X192221976Y-75327699D01*
X192162143Y-75291618D01*
X192131316Y-75228917D01*
X192129500Y-75207773D01*
X192129500Y-75155945D01*
X192129500Y-75155943D01*
X192107410Y-75073501D01*
X192088577Y-75003215D01*
X192059639Y-74953095D01*
X192009520Y-74866284D01*
X191897716Y-74754480D01*
X191897715Y-74754479D01*
X191893385Y-74750149D01*
X191893374Y-74750139D01*
X185656819Y-68513584D01*
X185623334Y-68452261D01*
X185620500Y-68425903D01*
X185620500Y-64852486D01*
X187749500Y-64852486D01*
X187749500Y-65147513D01*
X187768482Y-65291690D01*
X187788007Y-65439993D01*
X187851111Y-65675501D01*
X187864361Y-65724951D01*
X187864364Y-65724961D01*
X187977254Y-65997500D01*
X187977258Y-65997510D01*
X188124761Y-66252993D01*
X188304352Y-66487040D01*
X188304358Y-66487047D01*
X188512952Y-66695641D01*
X188512959Y-66695647D01*
X188747006Y-66875238D01*
X189002489Y-67022741D01*
X189002490Y-67022741D01*
X189002493Y-67022743D01*
X189275048Y-67135639D01*
X189560007Y-67211993D01*
X189852494Y-67250500D01*
X189852501Y-67250500D01*
X190147499Y-67250500D01*
X190147506Y-67250500D01*
X190439993Y-67211993D01*
X190724952Y-67135639D01*
X190997507Y-67022743D01*
X191252994Y-66875238D01*
X191487042Y-66695646D01*
X191695646Y-66487042D01*
X191875238Y-66252994D01*
X192022743Y-65997507D01*
X192135639Y-65724952D01*
X192211993Y-65439993D01*
X192250500Y-65147506D01*
X192250500Y-64852494D01*
X192211993Y-64560007D01*
X192135639Y-64275048D01*
X192022743Y-64002493D01*
X191875238Y-63747006D01*
X191695646Y-63512958D01*
X191695641Y-63512952D01*
X191487047Y-63304358D01*
X191487040Y-63304352D01*
X191252993Y-63124761D01*
X190997510Y-62977258D01*
X190997500Y-62977254D01*
X190724961Y-62864364D01*
X190724954Y-62864362D01*
X190724952Y-62864361D01*
X190439993Y-62788007D01*
X190390484Y-62781489D01*
X190147513Y-62749500D01*
X190147506Y-62749500D01*
X189852494Y-62749500D01*
X189852486Y-62749500D01*
X189574085Y-62786153D01*
X189560007Y-62788007D01*
X189540847Y-62793141D01*
X189275048Y-62864361D01*
X189275038Y-62864364D01*
X189002499Y-62977254D01*
X189002489Y-62977258D01*
X188747006Y-63124761D01*
X188512959Y-63304352D01*
X188512952Y-63304358D01*
X188304358Y-63512952D01*
X188304352Y-63512959D01*
X188124761Y-63747006D01*
X187977258Y-64002489D01*
X187977254Y-64002499D01*
X187864364Y-64275038D01*
X187864361Y-64275048D01*
X187810919Y-64474500D01*
X187788008Y-64560004D01*
X187788006Y-64560015D01*
X187749500Y-64852486D01*
X185620500Y-64852486D01*
X185620500Y-60029601D01*
X185623360Y-60019857D01*
X185622094Y-60009781D01*
X185633039Y-59986895D01*
X185640185Y-59962562D01*
X185648661Y-59954234D01*
X185652241Y-59946750D01*
X185670772Y-59932511D01*
X185679320Y-59924114D01*
X185683654Y-59921435D01*
X185701610Y-59912287D01*
X185867219Y-59791966D01*
X186011966Y-59647219D01*
X186067766Y-59570415D01*
X186123096Y-59527750D01*
X186192710Y-59521771D01*
X186254505Y-59554376D01*
X186288233Y-59612635D01*
X186293438Y-59633030D01*
X186293440Y-59633037D01*
X186316863Y-59689583D01*
X187077037Y-58929409D01*
X187094075Y-58992993D01*
X187159901Y-59107007D01*
X187252993Y-59200099D01*
X187367007Y-59265925D01*
X187430590Y-59282962D01*
X186670415Y-60043135D01*
X186670415Y-60043136D01*
X186726946Y-60066552D01*
X186777946Y-60084544D01*
X186920219Y-60104999D01*
X186920221Y-60105000D01*
X188199786Y-60105000D01*
X188253762Y-60102106D01*
X188253764Y-60102106D01*
X188393023Y-60066563D01*
X188393035Y-60066559D01*
X188449582Y-60043135D01*
X187689409Y-59282962D01*
X187752993Y-59265925D01*
X187867007Y-59200099D01*
X187960099Y-59107007D01*
X188025925Y-58992993D01*
X188042962Y-58929409D01*
X188803135Y-59689582D01*
X188803137Y-59689582D01*
X188826553Y-59633052D01*
X188836668Y-59604379D01*
X188877533Y-59547706D01*
X188942551Y-59522123D01*
X189011078Y-59535752D01*
X189053924Y-59572744D01*
X189108028Y-59647212D01*
X189108032Y-59647217D01*
X189252786Y-59791971D01*
X189400486Y-59899279D01*
X189418390Y-59912287D01*
X189517060Y-59962562D01*
X189600776Y-60005218D01*
X189600778Y-60005218D01*
X189600781Y-60005220D01*
X189675818Y-60029601D01*
X189795465Y-60068477D01*
X189896557Y-60084488D01*
X189997648Y-60100500D01*
X189997649Y-60100500D01*
X190202351Y-60100500D01*
X190202352Y-60100500D01*
X190404534Y-60068477D01*
X190599219Y-60005220D01*
X190781610Y-59912287D01*
X190887733Y-59835185D01*
X190947213Y-59791971D01*
X190947215Y-59791968D01*
X190947219Y-59791966D01*
X191091966Y-59647219D01*
X191150654Y-59566440D01*
X191205984Y-59523774D01*
X191275597Y-59517794D01*
X191337392Y-59550400D01*
X191369358Y-59602435D01*
X191396520Y-59689602D01*
X191396521Y-59689604D01*
X191396522Y-59689606D01*
X191458401Y-59791966D01*
X191484530Y-59835188D01*
X191604811Y-59955469D01*
X191604813Y-59955470D01*
X191604815Y-59955472D01*
X191750394Y-60043478D01*
X191912804Y-60094086D01*
X191983384Y-60100500D01*
X191983387Y-60100500D01*
X193296613Y-60100500D01*
X193296616Y-60100500D01*
X193367196Y-60094086D01*
X193529606Y-60043478D01*
X193675185Y-59955472D01*
X193795472Y-59835185D01*
X193883478Y-59689606D01*
X193934086Y-59527196D01*
X193940500Y-59456616D01*
X193940500Y-58143384D01*
X193934086Y-58072804D01*
X193883478Y-57910394D01*
X193795472Y-57764815D01*
X193795470Y-57764813D01*
X193795469Y-57764811D01*
X193675188Y-57644530D01*
X193529606Y-57556522D01*
X193461963Y-57535444D01*
X193367196Y-57505914D01*
X193367194Y-57505913D01*
X193367192Y-57505913D01*
X193317778Y-57501423D01*
X193296616Y-57499500D01*
X191983384Y-57499500D01*
X191964145Y-57501248D01*
X191912807Y-57505913D01*
X191750393Y-57556522D01*
X191604811Y-57644530D01*
X191484530Y-57764811D01*
X191396521Y-57910396D01*
X191369358Y-57997565D01*
X191330620Y-58055712D01*
X191266595Y-58083686D01*
X191197610Y-58072604D01*
X191150655Y-58033559D01*
X191091971Y-57952786D01*
X190947213Y-57808028D01*
X190781613Y-57687715D01*
X190781612Y-57687714D01*
X190781610Y-57687713D01*
X190696855Y-57644528D01*
X190599223Y-57594781D01*
X190404534Y-57531522D01*
X190229995Y-57503878D01*
X190202352Y-57499500D01*
X189997648Y-57499500D01*
X189973329Y-57503351D01*
X189795465Y-57531522D01*
X189600776Y-57594781D01*
X189418386Y-57687715D01*
X189252786Y-57808028D01*
X189108028Y-57952786D01*
X188987715Y-58118386D01*
X188943942Y-58204295D01*
X188895967Y-58255091D01*
X188828146Y-58271886D01*
X188762011Y-58249348D01*
X188724099Y-58206454D01*
X188688841Y-58140493D01*
X188642465Y-58071086D01*
X188642465Y-58071085D01*
X188042962Y-58670589D01*
X188025925Y-58607007D01*
X187960099Y-58492993D01*
X187867007Y-58399901D01*
X187752993Y-58334075D01*
X187689410Y-58317037D01*
X188288913Y-57717534D01*
X188288912Y-57717533D01*
X188219506Y-57671158D01*
X188132198Y-57624490D01*
X187986612Y-57564185D01*
X187891864Y-57535444D01*
X187737300Y-57504701D01*
X187638790Y-57495000D01*
X187481210Y-57495000D01*
X187382700Y-57504701D01*
X187382697Y-57504701D01*
X187228135Y-57535444D01*
X187133387Y-57564185D01*
X186987801Y-57624490D01*
X186900488Y-57671161D01*
X186831086Y-57717532D01*
X186831085Y-57717533D01*
X187430590Y-58317037D01*
X187367007Y-58334075D01*
X187252993Y-58399901D01*
X187159901Y-58492993D01*
X187094075Y-58607007D01*
X187077037Y-58670589D01*
X186477533Y-58071085D01*
X186477532Y-58071086D01*
X186431160Y-58140489D01*
X186431157Y-58140494D01*
X186395899Y-58206455D01*
X186346936Y-58256299D01*
X186278798Y-58271758D01*
X186213119Y-58247925D01*
X186176057Y-58204294D01*
X186143549Y-58140494D01*
X186132287Y-58118390D01*
X186132286Y-58118388D01*
X186011971Y-57952786D01*
X185867213Y-57808028D01*
X185701613Y-57687715D01*
X185701612Y-57687714D01*
X185701610Y-57687713D01*
X185616855Y-57644528D01*
X185519223Y-57594781D01*
X185324534Y-57531522D01*
X185149995Y-57503878D01*
X185122352Y-57499500D01*
X184917648Y-57499500D01*
X184893329Y-57503351D01*
X184715465Y-57531522D01*
X184520776Y-57594781D01*
X184338386Y-57687715D01*
X184172786Y-57808028D01*
X184028028Y-57952786D01*
X183907715Y-58118386D01*
X183860485Y-58211080D01*
X183812510Y-58261876D01*
X183744689Y-58278671D01*
X183678554Y-58256134D01*
X183639515Y-58211080D01*
X183636057Y-58204294D01*
X183592287Y-58118390D01*
X183567073Y-58083686D01*
X183471971Y-57952786D01*
X183327213Y-57808028D01*
X183161613Y-57687715D01*
X183161612Y-57687714D01*
X183161610Y-57687713D01*
X183076855Y-57644528D01*
X182979223Y-57594781D01*
X182784534Y-57531522D01*
X182609995Y-57503878D01*
X182582352Y-57499500D01*
X182377648Y-57499500D01*
X182353329Y-57503351D01*
X182175465Y-57531522D01*
X181980776Y-57594781D01*
X181798386Y-57687715D01*
X181632786Y-57808028D01*
X181488028Y-57952786D01*
X181367715Y-58118386D01*
X181320485Y-58211080D01*
X181272510Y-58261876D01*
X181204689Y-58278671D01*
X181138554Y-58256134D01*
X181099515Y-58211080D01*
X181096057Y-58204294D01*
X181052287Y-58118390D01*
X181027073Y-58083686D01*
X180931971Y-57952786D01*
X180787213Y-57808028D01*
X180621613Y-57687715D01*
X180621612Y-57687714D01*
X180621610Y-57687713D01*
X180536855Y-57644528D01*
X180439223Y-57594781D01*
X180244534Y-57531522D01*
X180069995Y-57503878D01*
X180042352Y-57499500D01*
X179837648Y-57499500D01*
X179813329Y-57503351D01*
X179635465Y-57531522D01*
X179440776Y-57594781D01*
X179258386Y-57687715D01*
X179092786Y-57808028D01*
X178948028Y-57952786D01*
X178827715Y-58118386D01*
X178780485Y-58211080D01*
X178732510Y-58261876D01*
X178664689Y-58278671D01*
X178598554Y-58256134D01*
X178559515Y-58211080D01*
X178556057Y-58204294D01*
X178512287Y-58118390D01*
X178487073Y-58083686D01*
X178391971Y-57952786D01*
X178247213Y-57808028D01*
X178081613Y-57687715D01*
X178081612Y-57687714D01*
X178081610Y-57687713D01*
X177996855Y-57644528D01*
X177899223Y-57594781D01*
X177704534Y-57531522D01*
X177529995Y-57503878D01*
X177502352Y-57499500D01*
X177297648Y-57499500D01*
X177273329Y-57503351D01*
X177095465Y-57531522D01*
X176900776Y-57594781D01*
X176718386Y-57687715D01*
X176552786Y-57808028D01*
X176408028Y-57952786D01*
X176287715Y-58118386D01*
X176243942Y-58204295D01*
X176195967Y-58255091D01*
X176128146Y-58271886D01*
X176062011Y-58249348D01*
X176024099Y-58206454D01*
X175988841Y-58140493D01*
X175942465Y-58071086D01*
X175942465Y-58071085D01*
X175342962Y-58670589D01*
X175325925Y-58607007D01*
X175260099Y-58492993D01*
X175167007Y-58399901D01*
X175052993Y-58334075D01*
X174989410Y-58317037D01*
X175588913Y-57717534D01*
X175588912Y-57717533D01*
X175519506Y-57671158D01*
X175432198Y-57624490D01*
X175286612Y-57564185D01*
X175191864Y-57535444D01*
X175037300Y-57504701D01*
X174938790Y-57495000D01*
X174781210Y-57495000D01*
X174682700Y-57504701D01*
X174682697Y-57504701D01*
X174528135Y-57535444D01*
X174433387Y-57564185D01*
X174287801Y-57624490D01*
X174200488Y-57671161D01*
X174131086Y-57717532D01*
X174131085Y-57717533D01*
X174730590Y-58317037D01*
X174667007Y-58334075D01*
X174552993Y-58399901D01*
X174459901Y-58492993D01*
X174394075Y-58607007D01*
X174377037Y-58670589D01*
X173777533Y-58071085D01*
X173777532Y-58071086D01*
X173731160Y-58140489D01*
X173731157Y-58140494D01*
X173695899Y-58206455D01*
X173646936Y-58256299D01*
X173578798Y-58271758D01*
X173513119Y-58247925D01*
X173476057Y-58204294D01*
X173443549Y-58140494D01*
X173432287Y-58118390D01*
X173432286Y-58118388D01*
X173311971Y-57952786D01*
X173167213Y-57808028D01*
X173001613Y-57687715D01*
X173001612Y-57687714D01*
X173001610Y-57687713D01*
X172916855Y-57644528D01*
X172819223Y-57594781D01*
X172624534Y-57531522D01*
X172449995Y-57503878D01*
X172422352Y-57499500D01*
X172217648Y-57499500D01*
X172193329Y-57503351D01*
X172015465Y-57531522D01*
X171820776Y-57594781D01*
X171638386Y-57687715D01*
X171472786Y-57808028D01*
X171328028Y-57952786D01*
X171207715Y-58118386D01*
X171160485Y-58211080D01*
X171112510Y-58261876D01*
X171044689Y-58278671D01*
X170978554Y-58256134D01*
X170939515Y-58211080D01*
X170936057Y-58204294D01*
X170892287Y-58118390D01*
X170867073Y-58083686D01*
X170771971Y-57952786D01*
X170627213Y-57808028D01*
X170461613Y-57687715D01*
X170461612Y-57687714D01*
X170461610Y-57687713D01*
X170376855Y-57644528D01*
X170279223Y-57594781D01*
X170084534Y-57531522D01*
X169909995Y-57503878D01*
X169882352Y-57499500D01*
X169677648Y-57499500D01*
X169653329Y-57503351D01*
X169475465Y-57531522D01*
X169280776Y-57594781D01*
X169098386Y-57687715D01*
X168932786Y-57808028D01*
X168788028Y-57952786D01*
X168667715Y-58118386D01*
X168620485Y-58211080D01*
X168572510Y-58261876D01*
X168504689Y-58278671D01*
X168438554Y-58256134D01*
X168399515Y-58211080D01*
X168396057Y-58204294D01*
X168352287Y-58118390D01*
X168327073Y-58083686D01*
X168231971Y-57952786D01*
X168087213Y-57808028D01*
X167921613Y-57687715D01*
X167921612Y-57687714D01*
X167921610Y-57687713D01*
X167836855Y-57644528D01*
X167739223Y-57594781D01*
X167544534Y-57531522D01*
X167369995Y-57503878D01*
X167342352Y-57499500D01*
X167137648Y-57499500D01*
X167113329Y-57503351D01*
X166935465Y-57531522D01*
X166740776Y-57594781D01*
X166558386Y-57687715D01*
X166392786Y-57808028D01*
X166248028Y-57952786D01*
X166127715Y-58118386D01*
X166080485Y-58211080D01*
X166032510Y-58261876D01*
X165964689Y-58278671D01*
X165898554Y-58256134D01*
X165859515Y-58211080D01*
X165856057Y-58204294D01*
X165812287Y-58118390D01*
X165787073Y-58083686D01*
X165691971Y-57952786D01*
X165547213Y-57808028D01*
X165381613Y-57687715D01*
X165381612Y-57687714D01*
X165381610Y-57687713D01*
X165296855Y-57644528D01*
X165199223Y-57594781D01*
X165004534Y-57531522D01*
X164829995Y-57503878D01*
X164802352Y-57499500D01*
X164597648Y-57499500D01*
X164573329Y-57503351D01*
X164395465Y-57531522D01*
X164200776Y-57594781D01*
X164018386Y-57687715D01*
X163852786Y-57808028D01*
X163708028Y-57952786D01*
X163587715Y-58118386D01*
X163543942Y-58204295D01*
X163495967Y-58255091D01*
X163428146Y-58271886D01*
X163362011Y-58249348D01*
X163324099Y-58206454D01*
X163288841Y-58140493D01*
X163242465Y-58071086D01*
X163242465Y-58071085D01*
X162642962Y-58670589D01*
X162625925Y-58607007D01*
X162560099Y-58492993D01*
X162467007Y-58399901D01*
X162352993Y-58334075D01*
X162289410Y-58317037D01*
X162888913Y-57717534D01*
X162888912Y-57717533D01*
X162819506Y-57671158D01*
X162732198Y-57624490D01*
X162586612Y-57564185D01*
X162491864Y-57535444D01*
X162337300Y-57504701D01*
X162238790Y-57495000D01*
X162081210Y-57495000D01*
X161982700Y-57504701D01*
X161982697Y-57504701D01*
X161828135Y-57535444D01*
X161733387Y-57564185D01*
X161587801Y-57624490D01*
X161500488Y-57671161D01*
X161431086Y-57717532D01*
X161431085Y-57717533D01*
X162030590Y-58317037D01*
X161967007Y-58334075D01*
X161852993Y-58399901D01*
X161759901Y-58492993D01*
X161694075Y-58607007D01*
X161677037Y-58670589D01*
X161077533Y-58071085D01*
X161077532Y-58071086D01*
X161031160Y-58140489D01*
X161031157Y-58140494D01*
X160995899Y-58206455D01*
X160946936Y-58256299D01*
X160878798Y-58271758D01*
X160813119Y-58247925D01*
X160776057Y-58204294D01*
X160743549Y-58140494D01*
X160732287Y-58118390D01*
X160732286Y-58118388D01*
X160611971Y-57952786D01*
X160467213Y-57808028D01*
X160301613Y-57687715D01*
X160301612Y-57687714D01*
X160301610Y-57687713D01*
X160216855Y-57644528D01*
X160119223Y-57594781D01*
X159924534Y-57531522D01*
X159749995Y-57503878D01*
X159722352Y-57499500D01*
X159517648Y-57499500D01*
X159493329Y-57503351D01*
X159315465Y-57531522D01*
X159120776Y-57594781D01*
X158938386Y-57687715D01*
X158772786Y-57808028D01*
X158628028Y-57952786D01*
X158507715Y-58118386D01*
X158460485Y-58211080D01*
X158412510Y-58261876D01*
X158344689Y-58278671D01*
X158278554Y-58256134D01*
X158239515Y-58211080D01*
X158236057Y-58204294D01*
X158192287Y-58118390D01*
X158167073Y-58083686D01*
X158071971Y-57952786D01*
X157927213Y-57808028D01*
X157761613Y-57687715D01*
X157761612Y-57687714D01*
X157761610Y-57687713D01*
X157676855Y-57644528D01*
X157579223Y-57594781D01*
X157384534Y-57531522D01*
X157209995Y-57503878D01*
X157182352Y-57499500D01*
X156977648Y-57499500D01*
X156953329Y-57503351D01*
X156775465Y-57531522D01*
X156580776Y-57594781D01*
X156398386Y-57687715D01*
X156232786Y-57808028D01*
X156088028Y-57952786D01*
X155967715Y-58118386D01*
X155920485Y-58211080D01*
X155872510Y-58261876D01*
X155804689Y-58278671D01*
X155738554Y-58256134D01*
X155699515Y-58211080D01*
X155696057Y-58204294D01*
X155652287Y-58118390D01*
X155627073Y-58083686D01*
X155531971Y-57952786D01*
X155387213Y-57808028D01*
X155221613Y-57687715D01*
X155221612Y-57687714D01*
X155221610Y-57687713D01*
X155136855Y-57644528D01*
X155039223Y-57594781D01*
X154844534Y-57531522D01*
X154669995Y-57503878D01*
X154642352Y-57499500D01*
X154437648Y-57499500D01*
X154413329Y-57503351D01*
X154235465Y-57531522D01*
X154040776Y-57594781D01*
X153858386Y-57687715D01*
X153692786Y-57808028D01*
X153548028Y-57952786D01*
X153427715Y-58118386D01*
X153380485Y-58211080D01*
X153332510Y-58261876D01*
X153264689Y-58278671D01*
X153198554Y-58256134D01*
X153159515Y-58211080D01*
X153156057Y-58204294D01*
X153112287Y-58118390D01*
X153087073Y-58083686D01*
X152991971Y-57952786D01*
X152847213Y-57808028D01*
X152681613Y-57687715D01*
X152681612Y-57687714D01*
X152681610Y-57687713D01*
X152596855Y-57644528D01*
X152499223Y-57594781D01*
X152304534Y-57531522D01*
X152129995Y-57503878D01*
X152102352Y-57499500D01*
X151897648Y-57499500D01*
X151873329Y-57503351D01*
X151695465Y-57531522D01*
X151500776Y-57594781D01*
X151318386Y-57687715D01*
X151152786Y-57808028D01*
X151008028Y-57952786D01*
X150887715Y-58118386D01*
X150843942Y-58204295D01*
X150795967Y-58255091D01*
X150728146Y-58271886D01*
X150662011Y-58249348D01*
X150624099Y-58206454D01*
X150588841Y-58140493D01*
X150542465Y-58071086D01*
X150542465Y-58071085D01*
X149942962Y-58670589D01*
X149925925Y-58607007D01*
X149860099Y-58492993D01*
X149767007Y-58399901D01*
X149652993Y-58334075D01*
X149589410Y-58317037D01*
X150188913Y-57717534D01*
X150188912Y-57717533D01*
X150119506Y-57671158D01*
X150032198Y-57624490D01*
X149886612Y-57564185D01*
X149791864Y-57535444D01*
X149637300Y-57504701D01*
X149538790Y-57495000D01*
X149381210Y-57495000D01*
X149282700Y-57504701D01*
X149282697Y-57504701D01*
X149128135Y-57535444D01*
X149033387Y-57564185D01*
X148887801Y-57624490D01*
X148800488Y-57671161D01*
X148731086Y-57717532D01*
X148731085Y-57717533D01*
X149330590Y-58317037D01*
X149267007Y-58334075D01*
X149152993Y-58399901D01*
X149059901Y-58492993D01*
X148994075Y-58607007D01*
X148977037Y-58670589D01*
X148377533Y-58071085D01*
X148377532Y-58071086D01*
X148331160Y-58140489D01*
X148331157Y-58140494D01*
X148295899Y-58206455D01*
X148246936Y-58256299D01*
X148178798Y-58271758D01*
X148113119Y-58247925D01*
X148076057Y-58204294D01*
X148043549Y-58140494D01*
X148032287Y-58118390D01*
X148032286Y-58118388D01*
X147911971Y-57952786D01*
X147767213Y-57808028D01*
X147601613Y-57687715D01*
X147601612Y-57687714D01*
X147601610Y-57687713D01*
X147516855Y-57644528D01*
X147419223Y-57594781D01*
X147224534Y-57531522D01*
X147049995Y-57503878D01*
X147022352Y-57499500D01*
X146817648Y-57499500D01*
X146793329Y-57503351D01*
X146615465Y-57531522D01*
X146420776Y-57594781D01*
X146238386Y-57687715D01*
X146072786Y-57808028D01*
X145928028Y-57952786D01*
X145807715Y-58118386D01*
X145760485Y-58211080D01*
X145712510Y-58261876D01*
X145644689Y-58278671D01*
X145578554Y-58256134D01*
X145539515Y-58211080D01*
X145536057Y-58204294D01*
X145492287Y-58118390D01*
X145467073Y-58083686D01*
X145371971Y-57952786D01*
X145227213Y-57808028D01*
X145061613Y-57687715D01*
X145061612Y-57687714D01*
X145061610Y-57687713D01*
X144976855Y-57644528D01*
X144879223Y-57594781D01*
X144684534Y-57531522D01*
X144509995Y-57503878D01*
X144482352Y-57499500D01*
X144277648Y-57499500D01*
X144253329Y-57503351D01*
X144075465Y-57531522D01*
X143880776Y-57594781D01*
X143698386Y-57687715D01*
X143532786Y-57808028D01*
X143388028Y-57952786D01*
X143267715Y-58118386D01*
X143174781Y-58300776D01*
X143111522Y-58495465D01*
X143079500Y-58697648D01*
X143079500Y-58902351D01*
X143111522Y-59104534D01*
X143174781Y-59299223D01*
X143238691Y-59424653D01*
X143254976Y-59456613D01*
X143267715Y-59481613D01*
X143388028Y-59647213D01*
X143532786Y-59791971D01*
X143680486Y-59899279D01*
X143698390Y-59912287D01*
X143797060Y-59962562D01*
X143880776Y-60005218D01*
X143880778Y-60005218D01*
X143880781Y-60005220D01*
X143955818Y-60029601D01*
X144075465Y-60068477D01*
X144176557Y-60084488D01*
X144277648Y-60100500D01*
X144277649Y-60100500D01*
X144482351Y-60100500D01*
X144482352Y-60100500D01*
X144684534Y-60068477D01*
X144879219Y-60005220D01*
X145061610Y-59912287D01*
X145167733Y-59835185D01*
X145227213Y-59791971D01*
X145227215Y-59791968D01*
X145227219Y-59791966D01*
X145371966Y-59647219D01*
X145371968Y-59647215D01*
X145371971Y-59647213D01*
X145492284Y-59481614D01*
X145492285Y-59481613D01*
X145492287Y-59481610D01*
X145539516Y-59388917D01*
X145587489Y-59338123D01*
X145655310Y-59321328D01*
X145721445Y-59343865D01*
X145760485Y-59388919D01*
X145807715Y-59481614D01*
X145928028Y-59647213D01*
X146072786Y-59791971D01*
X146220486Y-59899279D01*
X146238390Y-59912287D01*
X146337060Y-59962562D01*
X146420776Y-60005218D01*
X146420778Y-60005218D01*
X146420781Y-60005220D01*
X146495818Y-60029601D01*
X146615465Y-60068477D01*
X146716557Y-60084488D01*
X146817648Y-60100500D01*
X146817649Y-60100500D01*
X147022351Y-60100500D01*
X147022352Y-60100500D01*
X147224534Y-60068477D01*
X147419219Y-60005220D01*
X147601610Y-59912287D01*
X147615768Y-59902001D01*
X147767213Y-59791971D01*
X147767215Y-59791968D01*
X147767219Y-59791966D01*
X147911966Y-59647219D01*
X147967766Y-59570415D01*
X148023096Y-59527750D01*
X148092710Y-59521771D01*
X148154505Y-59554376D01*
X148188233Y-59612635D01*
X148193438Y-59633030D01*
X148193440Y-59633037D01*
X148216863Y-59689583D01*
X148977037Y-58929409D01*
X148994075Y-58992993D01*
X149059901Y-59107007D01*
X149152993Y-59200099D01*
X149267007Y-59265925D01*
X149330590Y-59282962D01*
X148570415Y-60043135D01*
X148570415Y-60043136D01*
X148626946Y-60066552D01*
X148677946Y-60084544D01*
X148820219Y-60104999D01*
X148820221Y-60105000D01*
X150099786Y-60105000D01*
X150153762Y-60102106D01*
X150153764Y-60102106D01*
X150293023Y-60066563D01*
X150293035Y-60066559D01*
X150349582Y-60043135D01*
X149589409Y-59282962D01*
X149652993Y-59265925D01*
X149767007Y-59200099D01*
X149860099Y-59107007D01*
X149925925Y-58992993D01*
X149942962Y-58929409D01*
X150703135Y-59689582D01*
X150703137Y-59689582D01*
X150726553Y-59633052D01*
X150736668Y-59604379D01*
X150777533Y-59547706D01*
X150842551Y-59522123D01*
X150911078Y-59535752D01*
X150953924Y-59572744D01*
X151008028Y-59647212D01*
X151008032Y-59647217D01*
X151152786Y-59791971D01*
X151300486Y-59899279D01*
X151318390Y-59912287D01*
X151417060Y-59962562D01*
X151500776Y-60005218D01*
X151500778Y-60005218D01*
X151500781Y-60005220D01*
X151575818Y-60029601D01*
X151695465Y-60068477D01*
X151796557Y-60084488D01*
X151897648Y-60100500D01*
X151897649Y-60100500D01*
X152102351Y-60100500D01*
X152102352Y-60100500D01*
X152304534Y-60068477D01*
X152499219Y-60005220D01*
X152681610Y-59912287D01*
X152787733Y-59835185D01*
X152847213Y-59791971D01*
X152847215Y-59791968D01*
X152847219Y-59791966D01*
X152991966Y-59647219D01*
X152991968Y-59647215D01*
X152991971Y-59647213D01*
X153112284Y-59481614D01*
X153112285Y-59481613D01*
X153112287Y-59481610D01*
X153159516Y-59388917D01*
X153207489Y-59338123D01*
X153275310Y-59321328D01*
X153341445Y-59343865D01*
X153380485Y-59388919D01*
X153427715Y-59481614D01*
X153548028Y-59647213D01*
X153692786Y-59791971D01*
X153840486Y-59899279D01*
X153858390Y-59912287D01*
X153957060Y-59962562D01*
X154040776Y-60005218D01*
X154040778Y-60005218D01*
X154040781Y-60005220D01*
X154115818Y-60029601D01*
X154235465Y-60068477D01*
X154336557Y-60084488D01*
X154437648Y-60100500D01*
X154437649Y-60100500D01*
X154642351Y-60100500D01*
X154642352Y-60100500D01*
X154844534Y-60068477D01*
X155039219Y-60005220D01*
X155221610Y-59912287D01*
X155327733Y-59835185D01*
X155387213Y-59791971D01*
X155387215Y-59791968D01*
X155387219Y-59791966D01*
X155531966Y-59647219D01*
X155531968Y-59647215D01*
X155531971Y-59647213D01*
X155652284Y-59481614D01*
X155652285Y-59481613D01*
X155652287Y-59481610D01*
X155699516Y-59388917D01*
X155747489Y-59338123D01*
X155815310Y-59321328D01*
X155881445Y-59343865D01*
X155920485Y-59388919D01*
X155967715Y-59481614D01*
X156088028Y-59647213D01*
X156232786Y-59791971D01*
X156380486Y-59899279D01*
X156398390Y-59912287D01*
X156497060Y-59962562D01*
X156580776Y-60005218D01*
X156580778Y-60005218D01*
X156580781Y-60005220D01*
X156655818Y-60029601D01*
X156775465Y-60068477D01*
X156876557Y-60084488D01*
X156977648Y-60100500D01*
X156977649Y-60100500D01*
X157182351Y-60100500D01*
X157182352Y-60100500D01*
X157384534Y-60068477D01*
X157579219Y-60005220D01*
X157761610Y-59912287D01*
X157867733Y-59835185D01*
X157927213Y-59791971D01*
X157927215Y-59791968D01*
X157927219Y-59791966D01*
X158071966Y-59647219D01*
X158071968Y-59647215D01*
X158071971Y-59647213D01*
X158192284Y-59481614D01*
X158192285Y-59481613D01*
X158192287Y-59481610D01*
X158239516Y-59388917D01*
X158287489Y-59338123D01*
X158355310Y-59321328D01*
X158421445Y-59343865D01*
X158460485Y-59388919D01*
X158507715Y-59481614D01*
X158628028Y-59647213D01*
X158772786Y-59791971D01*
X158920486Y-59899279D01*
X158938390Y-59912287D01*
X159037060Y-59962562D01*
X159120776Y-60005218D01*
X159120778Y-60005218D01*
X159120781Y-60005220D01*
X159195818Y-60029601D01*
X159315465Y-60068477D01*
X159416557Y-60084488D01*
X159517648Y-60100500D01*
X159517649Y-60100500D01*
X159722351Y-60100500D01*
X159722352Y-60100500D01*
X159924534Y-60068477D01*
X160119219Y-60005220D01*
X160301610Y-59912287D01*
X160315768Y-59902001D01*
X160467213Y-59791971D01*
X160467215Y-59791968D01*
X160467219Y-59791966D01*
X160611966Y-59647219D01*
X160667766Y-59570415D01*
X160723096Y-59527750D01*
X160792710Y-59521771D01*
X160854505Y-59554376D01*
X160888233Y-59612635D01*
X160893438Y-59633030D01*
X160893440Y-59633037D01*
X160916863Y-59689583D01*
X161677037Y-58929409D01*
X161694075Y-58992993D01*
X161759901Y-59107007D01*
X161852993Y-59200099D01*
X161967007Y-59265925D01*
X162030590Y-59282962D01*
X161270415Y-60043135D01*
X161270415Y-60043136D01*
X161326946Y-60066552D01*
X161377946Y-60084544D01*
X161520219Y-60104999D01*
X161520221Y-60105000D01*
X162799786Y-60105000D01*
X162853762Y-60102106D01*
X162853764Y-60102106D01*
X162993023Y-60066563D01*
X162993035Y-60066559D01*
X163049582Y-60043135D01*
X162289409Y-59282962D01*
X162352993Y-59265925D01*
X162467007Y-59200099D01*
X162560099Y-59107007D01*
X162625925Y-58992993D01*
X162642962Y-58929409D01*
X163403135Y-59689582D01*
X163403137Y-59689582D01*
X163426553Y-59633052D01*
X163436668Y-59604379D01*
X163477533Y-59547706D01*
X163542551Y-59522123D01*
X163611078Y-59535752D01*
X163653924Y-59572744D01*
X163708028Y-59647212D01*
X163708032Y-59647217D01*
X163852786Y-59791971D01*
X164000486Y-59899279D01*
X164018390Y-59912287D01*
X164117060Y-59962562D01*
X164200776Y-60005218D01*
X164200778Y-60005218D01*
X164200781Y-60005220D01*
X164275818Y-60029601D01*
X164395465Y-60068477D01*
X164496557Y-60084488D01*
X164597648Y-60100500D01*
X164597649Y-60100500D01*
X164802351Y-60100500D01*
X164802352Y-60100500D01*
X165004534Y-60068477D01*
X165199219Y-60005220D01*
X165381610Y-59912287D01*
X165487733Y-59835185D01*
X165547213Y-59791971D01*
X165547215Y-59791968D01*
X165547219Y-59791966D01*
X165691966Y-59647219D01*
X165691968Y-59647215D01*
X165691971Y-59647213D01*
X165812284Y-59481614D01*
X165812285Y-59481613D01*
X165812287Y-59481610D01*
X165859516Y-59388917D01*
X165907489Y-59338123D01*
X165975310Y-59321328D01*
X166041445Y-59343865D01*
X166080485Y-59388919D01*
X166127715Y-59481614D01*
X166248028Y-59647213D01*
X166392786Y-59791971D01*
X166540486Y-59899279D01*
X166558390Y-59912287D01*
X166657060Y-59962562D01*
X166740776Y-60005218D01*
X166740778Y-60005218D01*
X166740781Y-60005220D01*
X166815818Y-60029601D01*
X166935465Y-60068477D01*
X167036557Y-60084488D01*
X167137648Y-60100500D01*
X167137649Y-60100500D01*
X167342351Y-60100500D01*
X167342352Y-60100500D01*
X167544534Y-60068477D01*
X167739219Y-60005220D01*
X167921610Y-59912287D01*
X168027733Y-59835185D01*
X168087213Y-59791971D01*
X168087215Y-59791968D01*
X168087219Y-59791966D01*
X168231966Y-59647219D01*
X168231968Y-59647215D01*
X168231971Y-59647213D01*
X168352284Y-59481614D01*
X168352285Y-59481613D01*
X168352287Y-59481610D01*
X168399516Y-59388917D01*
X168447489Y-59338123D01*
X168515310Y-59321328D01*
X168581445Y-59343865D01*
X168620485Y-59388919D01*
X168667715Y-59481614D01*
X168788028Y-59647213D01*
X168932786Y-59791971D01*
X169080486Y-59899279D01*
X169098390Y-59912287D01*
X169197060Y-59962562D01*
X169280776Y-60005218D01*
X169280778Y-60005218D01*
X169280781Y-60005220D01*
X169355818Y-60029601D01*
X169475465Y-60068477D01*
X169576557Y-60084488D01*
X169677648Y-60100500D01*
X169677649Y-60100500D01*
X169870902Y-60100500D01*
X169937941Y-60120185D01*
X169983696Y-60172989D01*
X169993640Y-60242147D01*
X169964615Y-60305703D01*
X169958583Y-60312181D01*
X165832584Y-64438181D01*
X165771261Y-64471666D01*
X165744903Y-64474500D01*
X162779057Y-64474500D01*
X162620943Y-64474500D01*
X162468215Y-64515423D01*
X162468214Y-64515423D01*
X162468212Y-64515424D01*
X162468209Y-64515425D01*
X162418096Y-64544359D01*
X162418095Y-64544360D01*
X162390980Y-64560015D01*
X162331285Y-64594479D01*
X162331282Y-64594481D01*
X152821481Y-74104282D01*
X152821479Y-74104285D01*
X152771361Y-74191094D01*
X152771359Y-74191096D01*
X152742425Y-74241209D01*
X152742424Y-74241210D01*
X152742423Y-74241215D01*
X152701499Y-74393943D01*
X152701499Y-74393945D01*
X152701499Y-74562046D01*
X152701500Y-74562059D01*
X152701500Y-75275497D01*
X152681815Y-75342536D01*
X152629011Y-75388291D01*
X152559853Y-75398235D01*
X152521206Y-75385982D01*
X152499226Y-75374782D01*
X152304534Y-75311522D01*
X152129995Y-75283878D01*
X152102352Y-75279500D01*
X151897648Y-75279500D01*
X151873329Y-75283351D01*
X151695465Y-75311522D01*
X151500776Y-75374781D01*
X151318386Y-75467715D01*
X151152786Y-75588028D01*
X151008032Y-75732782D01*
X151008026Y-75732789D01*
X150952231Y-75809584D01*
X150896901Y-75852250D01*
X150827288Y-75858228D01*
X150765493Y-75825622D01*
X150731765Y-75767361D01*
X150726558Y-75746957D01*
X150703136Y-75690415D01*
X150703135Y-75690415D01*
X149942962Y-76450589D01*
X149925925Y-76387007D01*
X149860099Y-76272993D01*
X149767007Y-76179901D01*
X149652993Y-76114075D01*
X149589410Y-76097037D01*
X150349583Y-75336863D01*
X150349583Y-75336862D01*
X150293052Y-75313447D01*
X150293035Y-75313440D01*
X150242053Y-75295455D01*
X150099780Y-75275000D01*
X148820214Y-75275000D01*
X148766237Y-75277893D01*
X148766235Y-75277893D01*
X148626969Y-75313438D01*
X148626956Y-75313442D01*
X148570415Y-75336862D01*
X149330590Y-76097037D01*
X149267007Y-76114075D01*
X149152993Y-76179901D01*
X149059901Y-76272993D01*
X148994075Y-76387007D01*
X148977037Y-76450590D01*
X148216862Y-75690415D01*
X148193449Y-75746940D01*
X148183329Y-75775626D01*
X148142461Y-75832297D01*
X148077442Y-75857877D01*
X148008915Y-75844244D01*
X147966075Y-75807255D01*
X147911971Y-75732786D01*
X147767213Y-75588028D01*
X147615763Y-75477995D01*
X147601613Y-75467715D01*
X147601612Y-75467714D01*
X147601610Y-75467713D01*
X147489000Y-75410335D01*
X147419223Y-75374781D01*
X147224534Y-75311522D01*
X147049995Y-75283878D01*
X147022352Y-75279500D01*
X146817648Y-75279500D01*
X146793329Y-75283351D01*
X146615465Y-75311522D01*
X146420776Y-75374781D01*
X146238386Y-75467715D01*
X146072786Y-75588028D01*
X145928028Y-75732786D01*
X145807715Y-75898386D01*
X145760485Y-75991080D01*
X145712510Y-76041876D01*
X145644689Y-76058671D01*
X145578554Y-76036134D01*
X145539515Y-75991080D01*
X145538883Y-75989840D01*
X145492287Y-75898390D01*
X145452948Y-75844244D01*
X145371971Y-75732786D01*
X145227213Y-75588028D01*
X145061613Y-75467715D01*
X145061612Y-75467714D01*
X145061610Y-75467713D01*
X144949000Y-75410335D01*
X144879223Y-75374781D01*
X144684534Y-75311522D01*
X144509995Y-75283878D01*
X144482352Y-75279500D01*
X144277648Y-75279500D01*
X144253329Y-75283351D01*
X144075465Y-75311522D01*
X143880776Y-75374781D01*
X143698386Y-75467715D01*
X143532786Y-75588028D01*
X143388028Y-75732786D01*
X143267715Y-75898386D01*
X143174781Y-76080776D01*
X143111522Y-76275465D01*
X143079500Y-76477648D01*
X143079500Y-76682351D01*
X143111522Y-76884534D01*
X143174781Y-77079223D01*
X143223942Y-77175705D01*
X143256450Y-77239506D01*
X143267715Y-77261613D01*
X143388028Y-77427213D01*
X143532786Y-77571971D01*
X143657343Y-77662465D01*
X143698390Y-77692287D01*
X143805943Y-77747088D01*
X143880776Y-77785218D01*
X143880778Y-77785218D01*
X143880781Y-77785220D01*
X143948081Y-77807087D01*
X144075465Y-77848477D01*
X144135458Y-77857979D01*
X144277648Y-77880500D01*
X144277649Y-77880500D01*
X144482351Y-77880500D01*
X144482352Y-77880500D01*
X144684534Y-77848477D01*
X144879219Y-77785220D01*
X145061610Y-77692287D01*
X145154590Y-77624732D01*
X145227213Y-77571971D01*
X145227215Y-77571968D01*
X145227219Y-77571966D01*
X145371966Y-77427219D01*
X145371968Y-77427215D01*
X145371971Y-77427213D01*
X145492284Y-77261614D01*
X145492286Y-77261611D01*
X145492287Y-77261610D01*
X145539516Y-77168917D01*
X145587489Y-77118123D01*
X145655310Y-77101328D01*
X145721445Y-77123865D01*
X145760483Y-77168917D01*
X145796453Y-77239511D01*
X145807715Y-77261614D01*
X145928028Y-77427213D01*
X146072786Y-77571971D01*
X146197343Y-77662465D01*
X146238390Y-77692287D01*
X146345943Y-77747088D01*
X146420776Y-77785218D01*
X146420778Y-77785218D01*
X146420781Y-77785220D01*
X146488081Y-77807087D01*
X146615465Y-77848477D01*
X146675458Y-77857979D01*
X146817648Y-77880500D01*
X146817649Y-77880500D01*
X147022351Y-77880500D01*
X147022352Y-77880500D01*
X147224534Y-77848477D01*
X147419219Y-77785220D01*
X147601610Y-77692287D01*
X147694590Y-77624732D01*
X147767213Y-77571971D01*
X147767215Y-77571968D01*
X147767219Y-77571966D01*
X147911966Y-77427219D01*
X147911968Y-77427215D01*
X147911971Y-77427213D01*
X148032286Y-77261611D01*
X148032287Y-77261610D01*
X148076058Y-77175703D01*
X148124030Y-77124909D01*
X148191851Y-77108113D01*
X148257986Y-77130650D01*
X148295900Y-77173545D01*
X148331158Y-77239506D01*
X148377533Y-77308912D01*
X148377534Y-77308913D01*
X148977037Y-76709409D01*
X148994075Y-76772993D01*
X149059901Y-76887007D01*
X149152993Y-76980099D01*
X149267007Y-77045925D01*
X149330590Y-77062962D01*
X148731085Y-77662465D01*
X148800493Y-77708841D01*
X148887801Y-77755509D01*
X149033387Y-77815814D01*
X149128135Y-77844555D01*
X149282699Y-77875298D01*
X149381210Y-77885000D01*
X149538790Y-77885000D01*
X149637299Y-77875298D01*
X149637302Y-77875298D01*
X149791864Y-77844555D01*
X149886612Y-77815814D01*
X150032198Y-77755509D01*
X150119501Y-77708844D01*
X150119511Y-77708838D01*
X150188912Y-77662465D01*
X149589409Y-77062962D01*
X149652993Y-77045925D01*
X149767007Y-76980099D01*
X149860099Y-76887007D01*
X149925925Y-76772993D01*
X149942962Y-76709409D01*
X150542465Y-77308912D01*
X150588838Y-77239511D01*
X150588849Y-77239493D01*
X150624099Y-77173546D01*
X150673061Y-77123702D01*
X150741199Y-77108241D01*
X150806879Y-77132073D01*
X150843941Y-77175702D01*
X150876444Y-77239493D01*
X150887715Y-77261614D01*
X151008028Y-77427213D01*
X151152786Y-77571971D01*
X151277343Y-77662465D01*
X151318390Y-77692287D01*
X151425943Y-77747088D01*
X151500776Y-77785218D01*
X151500778Y-77785218D01*
X151500781Y-77785220D01*
X151568081Y-77807087D01*
X151695465Y-77848477D01*
X151755458Y-77857979D01*
X151897648Y-77880500D01*
X151897649Y-77880500D01*
X152102351Y-77880500D01*
X152102352Y-77880500D01*
X152304534Y-77848477D01*
X152499219Y-77785220D01*
X152521204Y-77774017D01*
X152589872Y-77761121D01*
X152654613Y-77787396D01*
X152694871Y-77844501D01*
X152701500Y-77884502D01*
X152701500Y-93997903D01*
X152681815Y-94064942D01*
X152665181Y-94085584D01*
X139987584Y-106763181D01*
X139926261Y-106796666D01*
X139899903Y-106799500D01*
X126938670Y-106799500D01*
X126938654Y-106799499D01*
X126931058Y-106799499D01*
X126772943Y-106799499D01*
X126696579Y-106819961D01*
X126620214Y-106840423D01*
X126620209Y-106840426D01*
X126483290Y-106919475D01*
X126483282Y-106919481D01*
X112449585Y-120953180D01*
X112422655Y-120967884D01*
X112396842Y-120984475D01*
X112390639Y-120985366D01*
X112388262Y-120986665D01*
X112361907Y-120989499D01*
X112328943Y-120989499D01*
X112328939Y-120989499D01*
X112321334Y-120989500D01*
X112321333Y-120989499D01*
X112321331Y-120989500D01*
X110828766Y-120989500D01*
X110761727Y-120969815D01*
X110759875Y-120968602D01*
X110628185Y-120880609D01*
X110628172Y-120880602D01*
X110482501Y-120820264D01*
X110482489Y-120820261D01*
X110327845Y-120789500D01*
X110327842Y-120789500D01*
X110170158Y-120789500D01*
X110170155Y-120789500D01*
X110015510Y-120820261D01*
X110015498Y-120820264D01*
X109869827Y-120880602D01*
X109869814Y-120880609D01*
X109738711Y-120968210D01*
X109738707Y-120968213D01*
X109627213Y-121079707D01*
X109627210Y-121079711D01*
X109539609Y-121210814D01*
X109539602Y-121210827D01*
X109479264Y-121356498D01*
X109479261Y-121356510D01*
X109448500Y-121511153D01*
X105677000Y-121511153D01*
X105677000Y-104124000D01*
X105696685Y-104056961D01*
X105749489Y-104011206D01*
X105801000Y-104000000D01*
X140983000Y-104000000D01*
X140983000Y-65290000D01*
X142510000Y-65290000D01*
X142510000Y-70090000D01*
X143459402Y-70090000D01*
X143526441Y-70109685D01*
X143557338Y-70137944D01*
X147138431Y-74749215D01*
X147170105Y-74790000D01*
X151510000Y-74790000D01*
X151510000Y-60590000D01*
X147170105Y-60590000D01*
X146440861Y-61529024D01*
X145504610Y-62734607D01*
X145447943Y-62775481D01*
X145390489Y-62781489D01*
X145147516Y-62749501D01*
X145147511Y-62749500D01*
X145147506Y-62749500D01*
X144852494Y-62749500D01*
X144852486Y-62749500D01*
X144574085Y-62786153D01*
X144560007Y-62788007D01*
X144540847Y-62793141D01*
X144275048Y-62864361D01*
X144275038Y-62864364D01*
X144002499Y-62977254D01*
X144002489Y-62977258D01*
X143747006Y-63124761D01*
X143512959Y-63304352D01*
X143512952Y-63304358D01*
X143304358Y-63512952D01*
X143304352Y-63512959D01*
X143124761Y-63747006D01*
X142977258Y-64002489D01*
X142977254Y-64002499D01*
X142864364Y-64275038D01*
X142864361Y-64275048D01*
X142810919Y-64474500D01*
X142788008Y-64560004D01*
X142788006Y-64560015D01*
X142749500Y-64852486D01*
X142749500Y-64852494D01*
X142749500Y-64901965D01*
X142749500Y-65147506D01*
X142749803Y-65149812D01*
X142749696Y-65150498D01*
X142749766Y-65151558D01*
X142749529Y-65151573D01*
X142739040Y-65218846D01*
X142692662Y-65271103D01*
X142626865Y-65290000D01*
X142510000Y-65290000D01*
X140983000Y-65290000D01*
X140983000Y-56309000D01*
X141002685Y-56241961D01*
X141055489Y-56196206D01*
X141107000Y-56185000D01*
X194198821Y-56185000D01*
X194265860Y-56204685D01*
G37*
%TD.AperFunction*%
%TD*%
M02*
