%TF.GenerationSoftware,KiCad,Pcbnew,10.0.4*%
%TF.CreationDate,2026-09-21T20:11:22+09:00*%
%TF.ProjectId,bath-monitor,62617468-2d6d-46f6-9e69-746f722e6b69,rev?*%
%TF.SameCoordinates,Original*%
%TF.FileFunction,Soldermask,Bot*%
%TF.FilePolarity,Negative*%
%FSLAX46Y46*%
G04 Gerber Fmt 4.6, Leading zero omitted, Abs format (unit mm)*
G04 Created by KiCad (PCBNEW 10.0.4) date 2026-09-21 20:11:22*
%MOMM*%
%LPD*%
G01*
G04 APERTURE LIST*
G04 Aperture macros list*
%AMRoundRect*
0 Rectangle with rounded corners*
0 $1 Rounding radius*
0 $2 $3 $4 $5 $6 $7 $8 $9 X,Y pos of 4 corners*
0 Add a 4 corners polygon primitive as box body*
4,1,4,$2,$3,$4,$5,$6,$7,$8,$9,$2,$3,0*
0 Add four circle primitives for the rounded corners*
1,1,$1+$1,$2,$3*
1,1,$1+$1,$4,$5*
1,1,$1+$1,$6,$7*
1,1,$1+$1,$8,$9*
0 Add four rect primitives between the rounded corners*
20,1,$1+$1,$2,$3,$4,$5,0*
20,1,$1+$1,$4,$5,$6,$7,0*
20,1,$1+$1,$6,$7,$8,$9,0*
20,1,$1+$1,$8,$9,$2,$3,0*%
%AMFreePoly0*
4,1,37,0.603843,0.796157,0.639018,0.796157,0.711114,0.766294,0.766294,0.711114,0.796157,0.639018,0.796157,0.603843,0.800000,0.600000,0.800000,-0.600000,0.796157,-0.603843,0.796157,-0.639018,0.766294,-0.711114,0.711114,-0.766294,0.639018,-0.796157,0.603843,-0.796157,0.600000,-0.800000,0.000000,-0.800000,0.000000,-0.796148,-0.078414,-0.796148,-0.232228,-0.765552,-0.377117,-0.705537,
-0.507515,-0.618408,-0.618408,-0.507515,-0.705537,-0.377117,-0.765552,-0.232228,-0.796148,-0.078414,-0.796148,0.078414,-0.765552,0.232228,-0.705537,0.377117,-0.618408,0.507515,-0.507515,0.618408,-0.377117,0.705537,-0.232228,0.765552,-0.078414,0.796148,0.000000,0.796148,0.000000,0.800000,0.600000,0.800000,0.603843,0.796157,0.603843,0.796157,$1*%
%AMFreePoly1*
4,1,37,0.000000,0.796148,0.078414,0.796148,0.232228,0.765552,0.377117,0.705537,0.507515,0.618408,0.618408,0.507515,0.705537,0.377117,0.765552,0.232228,0.796148,0.078414,0.796148,-0.078414,0.765552,-0.232228,0.705537,-0.377117,0.618408,-0.507515,0.507515,-0.618408,0.377117,-0.705537,0.232228,-0.765552,0.078414,-0.796148,0.000000,-0.796148,0.000000,-0.800000,-0.600000,-0.800000,
-0.603843,-0.796157,-0.639018,-0.796157,-0.711114,-0.766294,-0.766294,-0.711114,-0.796157,-0.639018,-0.796157,-0.603843,-0.800000,-0.600000,-0.800000,0.600000,-0.796157,0.603843,-0.796157,0.639018,-0.766294,0.711114,-0.711114,0.766294,-0.639018,0.796157,-0.603843,0.796157,-0.600000,0.800000,0.000000,0.800000,0.000000,0.796148,0.000000,0.796148,$1*%
G04 Aperture macros list end*
%ADD10O,3.200000X1.900000*%
%ADD11R,1.700000X1.700000*%
%ADD12C,1.700000*%
%ADD13RoundRect,0.200000X-0.600000X0.600000X-0.600000X-0.600000X0.600000X-0.600000X0.600000X0.600000X0*%
%ADD14C,1.600000*%
%ADD15FreePoly0,270.000000*%
%ADD16FreePoly1,270.000000*%
G04 APERTURE END LIST*
D10*
%TO.C,SW5*%
X107700000Y-127700000D03*
X120200000Y-127700000D03*
X107700000Y-132700000D03*
X120200000Y-132700000D03*
%TD*%
%TO.C,SW4*%
X125700000Y-127700000D03*
X138200000Y-127700000D03*
X125700000Y-132700000D03*
X138200000Y-132700000D03*
%TD*%
%TO.C,SW1*%
X179800000Y-127750000D03*
X192300000Y-127750000D03*
X179800000Y-132750000D03*
X192300000Y-132750000D03*
%TD*%
%TO.C,SW2*%
X161900000Y-127750000D03*
X174400000Y-127750000D03*
X161900000Y-132750000D03*
X174400000Y-132750000D03*
%TD*%
D11*
%TO.C,J2*%
X165250000Y-84760000D03*
D12*
X165250000Y-87300000D03*
X165250000Y-89840000D03*
X165250000Y-92380000D03*
%TD*%
D13*
%TO.C,U2*%
X192640000Y-58800000D03*
D14*
X190100000Y-58800000D03*
D15*
X187560000Y-58800000D03*
D14*
X185020000Y-58800000D03*
X182480000Y-58800000D03*
X179940000Y-58800000D03*
X177400000Y-58800000D03*
D15*
X174860000Y-58800000D03*
D14*
X172320000Y-58800000D03*
X169780000Y-58800000D03*
X167240000Y-58800000D03*
X164700000Y-58800000D03*
D15*
X162160000Y-58800000D03*
D14*
X159620000Y-58800000D03*
X157080000Y-58800000D03*
X154540000Y-58800000D03*
X152000000Y-58800000D03*
D15*
X149460000Y-58800000D03*
D14*
X146920000Y-58800000D03*
X144380000Y-58800000D03*
X144380000Y-76580000D03*
X146920000Y-76580000D03*
D16*
X149460000Y-76580000D03*
D14*
X152000000Y-76580000D03*
X154540000Y-76580000D03*
X157080000Y-76580000D03*
X159620000Y-76580000D03*
D16*
X162160000Y-76580000D03*
D14*
X164700000Y-76580000D03*
X167240000Y-76580000D03*
X169780000Y-76580000D03*
X172320000Y-76580000D03*
D16*
X174860000Y-76580000D03*
D14*
X177400000Y-76580000D03*
X179940000Y-76580000D03*
X182480000Y-76580000D03*
X185020000Y-76580000D03*
D16*
X187560000Y-76580000D03*
D14*
X190100000Y-76580000D03*
X192640000Y-76580000D03*
%TD*%
D11*
%TO.C,J1*%
X158890000Y-82220000D03*
D12*
X158890000Y-84760000D03*
X158890000Y-87300000D03*
X158890000Y-89840000D03*
X158890000Y-92380000D03*
X158890000Y-94920000D03*
X158890000Y-97460000D03*
%TD*%
D10*
%TO.C,SW3*%
X143750000Y-127750000D03*
X156250000Y-127750000D03*
X143750000Y-132750000D03*
X156250000Y-132750000D03*
%TD*%
M02*
