%TF.GenerationSoftware,KiCad,Pcbnew,10.0.4*%
%TF.CreationDate,2026-09-21T20:11:21+09:00*%
%TF.ProjectId,bath-monitor,62617468-2d6d-46f6-9e69-746f722e6b69,rev?*%
%TF.SameCoordinates,Original*%
%TF.FileFunction,Paste,Top*%
%TF.FilePolarity,Positive*%
%FSLAX46Y46*%
G04 Gerber Fmt 4.6, Leading zero omitted, Abs format (unit mm)*
G04 Created by KiCad (PCBNEW 10.0.4) date 2026-09-21 20:11:21*
%MOMM*%
%LPD*%
G01*
G04 APERTURE LIST*
G04 Aperture macros list*
%AMRoundRect*
0 Rectangle with rounded corners*
0 $1 Rounding radius*
0 $2 $3 $4 $5 $6 $7 $8 $9 X,Y pos of 4 corners*
0 Add a 4 corners polygon primitive as box body*
4,1,4,$2,$3,$4,$5,$6,$7,$8,$9,$2,$3,0*
0 Add four circle primitives for the rounded corners*
1,1,$1+$1,$2,$3*
1,1,$1+$1,$4,$5*
1,1,$1+$1,$6,$7*
1,1,$1+$1,$8,$9*
0 Add four rect primitives between the rounded corners*
20,1,$1+$1,$2,$3,$4,$5,0*
20,1,$1+$1,$4,$5,$6,$7,0*
20,1,$1+$1,$6,$7,$8,$9,0*
20,1,$1+$1,$8,$9,$2,$3,0*%
G04 Aperture macros list end*
%ADD10RoundRect,0.237500X-0.250000X-0.237500X0.250000X-0.237500X0.250000X0.237500X-0.250000X0.237500X0*%
%ADD11RoundRect,0.237500X0.237500X-0.300000X0.237500X0.300000X-0.237500X0.300000X-0.237500X-0.300000X0*%
%ADD12R,1.500000X1.000000*%
%ADD13RoundRect,0.162500X-0.617500X-0.162500X0.617500X-0.162500X0.617500X0.162500X-0.617500X0.162500X0*%
%ADD14RoundRect,0.237500X-0.237500X0.300000X-0.237500X-0.300000X0.237500X-0.300000X0.237500X0.300000X0*%
G04 APERTURE END LIST*
D10*
%TO.C,R5*%
X106987500Y-121600000D03*
X108812500Y-121600000D03*
%TD*%
D11*
%TO.C,C1*%
X191750000Y-114255000D03*
X191750000Y-112530000D03*
%TD*%
D12*
%TO.C,D5*%
X111500000Y-111430000D03*
X111500000Y-114630000D03*
X116400000Y-114630000D03*
X116400000Y-111430000D03*
%TD*%
D13*
%TO.C,U1*%
X184130000Y-83700000D03*
X184130000Y-84650000D03*
X184130000Y-85600000D03*
X186830000Y-85600000D03*
X186830000Y-83700000D03*
%TD*%
D12*
%TO.C,D2*%
X165600000Y-111430000D03*
X165600000Y-114630000D03*
X170500000Y-114630000D03*
X170500000Y-111430000D03*
%TD*%
%TO.C,D1*%
X183500000Y-111430000D03*
X183500000Y-114630000D03*
X188400000Y-114630000D03*
X188400000Y-111430000D03*
%TD*%
D10*
%TO.C,R3*%
X142987500Y-121700000D03*
X144812500Y-121700000D03*
%TD*%
D12*
%TO.C,D4*%
X129500000Y-111430000D03*
X129500000Y-114630000D03*
X134400000Y-114630000D03*
X134400000Y-111430000D03*
%TD*%
D10*
%TO.C,R4*%
X124887500Y-121600000D03*
X126712500Y-121600000D03*
%TD*%
D11*
%TO.C,C4*%
X137750000Y-114142500D03*
X137750000Y-112417500D03*
%TD*%
%TO.C,C3*%
X155862500Y-114142500D03*
X155862500Y-112417500D03*
%TD*%
D12*
%TO.C,D3*%
X147600000Y-111430000D03*
X147600000Y-114630000D03*
X152500000Y-114630000D03*
X152500000Y-111430000D03*
%TD*%
D10*
%TO.C,R1*%
X179000000Y-121700000D03*
X180825000Y-121700000D03*
%TD*%
D11*
%TO.C,C2*%
X173750000Y-114142500D03*
X173750000Y-112417500D03*
%TD*%
%TO.C,C5*%
X119750000Y-114142500D03*
X119750000Y-112417500D03*
%TD*%
D14*
%TO.C,C6*%
X189370000Y-83770500D03*
X189370000Y-85495500D03*
%TD*%
D10*
%TO.C,R2*%
X161187500Y-121700000D03*
X163012500Y-121700000D03*
%TD*%
M02*
